<?xml version="1.0" encoding="utf-8"?>
<!-- Generator: Adobe Illustrator 27.5.0, SVG Export Plug-In . SVG Version: 6.00 Build 0)  -->
<svg version="1.1" xmlns="http://www.w3.org/2000/svg" xmlns:xlink="http://www.w3.org/1999/xlink" x="0px" y="0px"
	 viewBox="0 0 1200 800" style="enable-background:new 0 0 1200 800; fill:#f5c193;" xml:space="preserve" >
<g id="BG">
	<rect style="fill:#fee5c7;" width="1200" height="800"/>
</g>
<g id="Object">
	<g>
		<defs>
			<rect id="SVGID_1_" width="1200" height="800"/>
		</defs>
		<clipPath id="SVGID_00000045614300333933994390000016261311884161712004_">
			<use xlink:href="#SVGID_1_"  style="overflow:visible;"/>
		</clipPath>
		<g style="clip-path:url(#SVGID_00000045614300333933994390000016261311884161712004_);">
			<g>
				<path d="M915.507,696.726c5.142,1.489,8.724,5.561,13.497,7.793c4.603,2.154,9.734,2.813,14.762,3.277
					c-1.302,2.686-3.494,4.908-7.134,4.371c-2.151-0.318-8.53,3.16-4.519,3.752c8.023,1.184,16.463-2.472,19.443-10.326
					c0.307-0.81-0.759-1.326-1.374-1.38c-5.855-0.51-11.952-0.99-17.146-4.016c-4.032-2.349-7.11-5.525-11.688-6.85
					c-1.576-0.456-3.786-0.288-5.147,0.735C915.553,694.569,913.707,696.205,915.507,696.726z"/>
				<path d="M1126.253,845.002c-51.467-0.473-119.216-5.693-146.182-57.027c5.781,0.598,11.652,0.124,17.675-1.432
					c1.669-0.431,4.686-3.292,2.097-4.761c-11.993-6.807-17.203-16.336-21.286-29.131c-0.611-1.916-1.329-3.723-2.109-5.473
					c6.264-4.633,15.458-4.066,21.267,1.058c0.158,0.261,0.315,0.519,0.465,0.755c5.961,9.372,14.108,17.612,24.632,21.664
					c13.996,5.39,34.212,2.899,42.126-11.156c0.835-1.483-5.812,0.24-6.372,0.586c-13.819,8.53-24.239-10.275-28.239-19.577
					c-4.195-9.756-8.573-19.366-14.871-27.981c-3.987-5.454-8.61-10.294-13.8-14.271c11.051-0.806,20.739,6.607,24.172,17.277
					c1.046,3.251,6.581,1.076,7.324-1.302c1.52-4.863,1.74-9.214,0.778-13.464c10.385,0.276,22.988-9.909,26.792-18.126
					c1.395-3.013-3.371-3.091-5.027-2.299c-14.959,7.15-31.819-7.926-46.807-10.569c-13.499-17.094-32.617-16.746-48.023-4.168
					c-12.169-20.51-38.46-23.81-55.813-10.805c-23.496-5.898-48.26,2.971-62.853,22.544c-1.036,1.389,0.091,2.08,1.733,2.19
					c-12.007,6.257-21.397,16.85-26.949,29.914c-9.193,21.629-7.027,41.462,0.294,62.953c3.326,9.764,7.732,18.894,13.086,27.209
					c-35.82-0.648-85.149-12.43-105.044-45.532c-23.509-39.115-4.269-93.877,42.687-102.388c1.561-0.283,2.815-1.323,3.392-2.372
					c9.291-2.394,18.428-7.231,26.1-12.588c15.465,25.446,44.255,22.398,68.737,10.839c0.49-0.231,2.595-1.533,0.91-1.834
					c-8.213-1.465-15.225-6.019-18.818-13.814c-3.778-8.199-1.123-16.742-1.351-25.344c-0.25-9.433-6.463-16.015-13.982-20.894
					c8.987-0.967,17.633-5.075,23.812-11.844c13.847-15.171,6.771-36.506-3.965-51.258c-0.973-1.337-7.551,0.191-7.29,1.953
					c1.948,13.128-7.204,30.875-25.41,22.89c-0.202-0.089-0.45-0.127-0.721-0.139c-1.66-4.083-3.011-8.576-5.223-12.551
					c-3.457-6.212-8.522-11.421-14.463-15.286c-10.584-6.886-22.687-8.888-35.007-6.771c-0.088,0.015-0.176,0.041-0.264,0.06
					c-0.004-0.064,0.007-0.125-0.003-0.19c-4.563-28.217-37.171-29.033-58.861-22.907c-0.724,0.204-1.284,0.503-1.717,0.846
					c-1.05-0.541-2.134-1.049-3.288-1.489c-9.488-3.615-20.482-4.736-30.398-2.326c5.316-12.128,13.199-23.148,14.92-36.609
					c3.885-30.395-20.064-54.392-49.278-55.598c1.246-15.792-11.372-32.234-23.973-40.487c-16.329-10.695-36.2-12.294-54.33-6.191
					c-4.014-11.214-17.978-17.403-31.368-18.035c-17.297-0.817-34.518,4.742-49.048,14.18c-0.358-0.207-0.825-0.367-1.425-0.456
					c-36.95-5.507-71.098,14.964-83.097,49.145c-18.74,3.692-34.001,15.995-44.246,31.878c-3.543,5.493-6.455,11.364-8.768,17.474
					c-1.606,4.241-2.411,9.388-5.269,12.771c-6.891,8.155-12.574,13.422-16.368,24.067c-8.887,24.937-10.185,53.612-2.47,78.986
					c1.677,5.516,3.873,10.879,6.262,16.182c-18.795,20.379-4.367,57.628,2.266,80.301c5.673,19.394,14.683,37.428,25.26,54.604
					c28.685,46.581,68.786,88.666,117.163,114.847c28.9,15.64,60.661,24.638,93.558,25.122c0.155,0.397,0.75,0.665,2.005,0.665
					c14.186,0,28.371,0,42.557,0c4.622,0.249,9.269,0.264,13.935,0c162.163,0,324.326,0,486.489,0
					c6.366,0.259,12.622,0.395,18.672,0.45C1126.928,849.997,1131.167,845.046,1126.253,845.002z M712.052,743.396
					c16.064,44.653,73.634,60.432,116.385,61.03c1.356,0.019,2.924-0.836,3.906-1.829c0.987,1.435,2.011,2.836,3.057,4.216
					c-50.643-0.677-112.464-12.224-132.898-65.585c-0.369-0.963-2.663-0.304-2.31,0.619c20.927,54.648,84.69,66.133,136.295,66.551
					c0.035,0,0.072-0.014,0.108-0.017c6.691,8.517,14.505,15.932,23.293,21.969c-21.672-1.031-43.639-6.217-64.77-10.251
					c-11.329-2.162-22.917-3.9-33.854-7.628c-17.56-5.986-33.574-15.793-48.402-26.811c-15.791-11.734-30.75-25.558-37.749-44.417
					c-0.25-0.673-2.533,0.017-2.31,0.619c6.104,16.447,18.273,29.195,31.796,39.959c14.109,11.229,29.508,21.341,46.168,28.36
					c11.939,5.03,24.333,7.438,36.963,9.874c12.929,2.494,25.872,4.924,38.862,7.075c11.582,1.918,23.394,4.023,35.176,4.462
					c9.839,6.44,20.843,11.18,32.813,13.859c-36.455,0-72.909,0-109.364,0c-58.746-7.867-123.44-19.607-160.909-70.086
					c-0.411-0.553-2.481,0.388-2.31,0.619c36.219,48.795,97.671,61.54,154.81,69.468c-11.349,0-22.698,0-34.048,0
					c-1.897-0.124-3.795-0.243-5.693-0.359c-28.315-6.715-55.762-16.44-81.972-29.104c-0.742-0.358-2.838,0.693-1.82,1.184
					c23.968,11.581,48.967,20.731,74.715,27.374c-20.743-1.258-41.455-2.832-61.39-9.089c-27.717-8.7-53.942-22.832-73.646-44.497
					c-0.445-0.489-2.625,0.327-2.163,0.834c19.771,21.738,46.132,35.92,73.936,44.647c19.273,6.05,39.263,7.755,59.311,9.01
					c-23.027,0-46.054,0-69.081,0c-16.77-7.3-33.171-15.378-49.14-24.31c-0.617-0.345-2.751,0.572-1.849,1.076
					c15.191,8.496,30.777,16.214,46.694,23.234c-10.749,0-21.499,0-32.248,0c-39.61-11.511-75.224-34.39-102.119-65.748
					c-0.619-0.721-2.827,0.158-2.126,0.975c25.998,30.313,60.131,52.772,98.112,64.774c-3.753,0-7.506,0-11.259,0
					c-21.086-2.438-41.458-10.068-60.051-20.546c-13.039-7.348-25.278-16.065-36.665-25.769
					c-10.966-9.346-21.034-19.997-33.777-26.993c-9.672-5.31-20.569-8.424-29.609-14.877c-11.866-8.471-16.894-21.445-18.279-35.556
					c-2.301-23.447,4.886-52.259-11.946-71.761c4.767-5.296,3.203-17.596,2.631-23.696c-1.018-10.856-4.644-23.125-14.807-28.538
					c4.768-4.846,10.878-8.297,14.962-13.857c4.683-6.374,5.855-15.47,7.263-23.083c1.391-7.52,0.182-12.475-5.836-17.268
					c-4.933-3.928-10.48-6.617-14.514-11.661c-2.071-2.59-4.048-5.815-5.07-8.964c-0.674-2.078-3.782-24.586,6.593-18.872
					c0.442,1.499,1.015,2.854,1.682,4.105c-0.018,0.021-0.049,0.037-0.062,0.059c-2.346,3.908-4.07,8.064-5.182,12.485
					c-0.108,0.431,2.133,0.136,2.274-0.422c0.909-3.616,2.251-7.044,3.984-10.314c2.382,3.524,5.724,5.919,9.589,7.481
					c-3.139,3.989-5.073,8.629-5.652,13.709c-0.137,1.207,2.221,0.914,2.344-0.162c0.547-4.799,2.355-9.087,5.311-12.846
					c2.994,0.952,6.225,1.476,9.557,1.647c-2.72,4.671-5.185,9.465-7.324,14.436c-0.512,1.19,1.809,1.147,2.201,0.236
					c2.162-5.024,4.652-9.869,7.408-14.587c7.227,0.05,14.657-1.335,20.595-3.104c-18.863,23.549-27.142,54.133-22.654,83.997
					c0.104,0.69,2.428,0.168,2.31-0.619c-4.511-30.013,3.921-60.733,23.129-84.233c0.007-0.009,0.003-0.014,0.01-0.023
					c4.949-1.631,9.868-3.745,14-6.91c-6.866,8.648-12.816,18.084-18.448,27.626c-0.674,1.142,1.673,1.253,2.223,0.32
					c10.479-17.753,21.959-35.191,38.844-47.5c0.483-0.352,0.507-0.705,0.303-0.969c7.292,1.133,14.844,4.982,16.354,10.147
					c-0.487,0.017-1.059,0.117-1.278,0.259c-15.749,10.158-27.285,25.316-32.825,43.225c-0.186,0.602,2.086,0.304,2.291-0.36
					c5.424-17.535,16.603-32.39,31.966-42.422c0.202,1.116,0.132,2.284-0.291,3.498c-7.918,5.169-14.752,14.114-15.601,23.734
					c-0.971,11.009,8.96,20.681,17.056,26.75c-0.563-0.037-1.739,0.121-1.975,0.539c-13.38,23.615-11.567,51.019-6.938,76.812
					c0.077,0.429,2.405-0.085,2.31-0.619c-4.611-25.693-6.441-53.001,6.865-76.545c1.35,0.967,6.983-1.032,6.823-2.342
					c0.008-0.101-0.014-0.195-0.113-0.268c-0.006-0.005-0.013-0.01-0.02-0.015c-5.903-7.301-5.439-16.985-1.003-24.96
					c6.493-11.673,19.683-14.359,32.059-14.701c-0.591,0.476-1.121,0.981-1.582,1.517c-12.915,6.266-23.202,16.587-29.272,29.74
					c-0.511,1.108,1.806,0.967,2.18,0.158c5.444-11.797,14.287-21.269,25.501-27.429c-3.584,7.632,2.239,18.514,11.163,22.818
					c-14.187,11.746-22.999,28.668-24.253,47.176c-0.074,1.101,2.264,0.72,2.328-0.22c1.226-18.101,9.714-34.74,23.648-46.224
					c0.136,0.051,0.269,0.109,0.407,0.157c5.845,2.009,11.426,1.95,16.68,0.564c-6.529,5.505-12.133,12.06-16.115,19.729
					c-3.08,5.934-4.799,12.055-5.13,18.728c-0.482,9.71-1.853,18.96-2.648,28.666c-2.926,35.757,9.215,71.303,32.644,98.308
					c1.787,2.06,8.768-0.617,6.742-2.953c-21.288-24.537-33.055-56.102-32.459-88.665c0.139-7.605,1.345-14.904,2.517-22.385
					c1.056-6.741-0.111-13.509,1.139-20.165c2.962-15.771,15.753-29.172,29.389-36.926c0.09,1.4,0.258,2.791,0.516,4.143
					c-0.132,0.201-0.236,0.401-0.359,0.601c-13.647,11.276-23.015,26.554-26.798,43.879c-0.199,0.913,2.133,0.562,2.315-0.269
					c3.378-15.471,11.234-29.238,22.68-39.957c-3.252,8.735,0.786,17.242,6.236,24.951c0.376,0.532,0.677,0.9,0.928,1.175
					c-7.991,8.454-13.655,18.394-16.885,29.614c-0.311,1.081,2.051,0.823,2.339-0.178c3.054-10.604,8.428-20.029,15.866-28.097
					c0.073,0.271,0.148,0.7,0.27,1.445c0.338,2.081-2.362,7.253-2.378,9.737c-0.035,5.277,1.812,10.26,5.205,14.258
					c2.203,2.595,4.893,4.598,7.859,6.045c-10.084,17.609-10.362,38.653-7.065,58.286c3.761,22.396,12.36,43.677,24.818,62.631
					c0.456,0.695,2.694-0.084,2.138-0.931c-12.015-18.28-20.379-38.724-24.288-60.267c-3.581-19.736-3.752-41.051,6.166-58.933
					c6.06,2.432,13.046,2.709,19.364,1.072c0.336-0.087,0.637-0.206,0.958-0.307c-14.789,13.995-22.435,34.134-20.51,54.54
					c0.046,0.49,2.372,0.05,2.309-0.619c-1.972-20.915,6.185-41.494,21.822-55.413c3.633-1.893,6.574-4.478,10.521-6.376
					c1.693-3.015,4.169-3.637,7.426-1.865c4.114-0.322,7.295,1.339,9.542,4.984c1.618,2.051,2.664,4.187,3.248,6.392
					c-15.097,13.529-26.174,30.595-32.436,49.885c-0.323,0.996,2.029,0.73,2.332-0.205c5.948-18.323,16.428-34.561,30.497-47.639
					c0.427,3.152,0.004,6.429-1.044,9.798c-0.222,0.712,0.071,1.188,0.647,1.46c0.29,0.9,2.76,1.227,4.695,0.354
					c0.289-0.13,0.58-0.269,0.87-0.408c-23.34,19.082-35.573,49.158-31.121,80.05c0.14,0.974,2.458,0.412,2.31-0.619
					c-5.231-36.297,12.983-71.864,45.614-88.51c1.245,1.773,2.476,3.522,3.776,5.185c-19.808,11.171-34.629,29.434-41.257,51.321
					c-0.267,0.882,2.064,0.577,2.317-0.26c6.405-21.149,20.668-39.082,39.814-49.965c3.264,3.949,7.092,7.262,12.844,8.889
					c8.674,2.453,17.398-0.445,25.335-4.088c-0.048,1.474,0.025,2.933,0.215,4.368c-26.818,9.05-48.866,29.093-60.102,55.15
					c-0.499,1.157,1.818,1.054,2.189,0.194c10.899-25.276,32.111-44.99,58.155-53.849c0.473,2.498,1.292,4.91,2.414,7.192
					c-36.656,16.494-59.826,53.636-58.014,94.039c0.05,1.117,2.368,0.689,2.327-0.222c-1.775-39.575,20.454-76.16,56.376-92.493
					c4.887,8.795,14.32,15.369,25.493,16.726C718.899,664.421,698.084,704.568,712.052,743.396z M474.551,491.609
					c0.097-0.083,0.19-0.167,0.26-0.256c2.133-2.738,6.767-3.631,11.778-3.157c-0.029,0.017-0.062,0.023-0.09,0.043
					c-5.318,3.877-10.063,8.301-14.461,13.039C473.594,498.253,474.338,494.999,474.551,491.609z M681.729,605.93
					c0.3,0.415,0.599,0.83,0.893,1.246c-1.323,0.672-2.62,1.376-3.896,2.107C679.815,608.219,680.823,607.099,681.729,605.93z
					 M669.198,491.404c21.898-7.787,38.957,8.108,48.122,25.669c1.434,2.748,8.559,0.479,7.289-1.953
					c-4.261-8.163-8.736-16.04-15.725-21.456c19.122-4.802,44.433-2.987,48.285,20.836c0.251,1.558,2.245,1.867,4.087,1.375
					c0.403,0.163,1.11,0.196,2.249,0c18.769-3.224,38.149,7.556,45.46,25.158c5.342,12.859,8.797,22.422,24.501,22.327
					c2.26-0.014,7.883-3.415,3.036-3.386c-7.953,0.048-12.015-3.265-14.757-7.896c12.711,1.262,25.735-5.937,29.955-17.591
					c2.529,4.951,4.411,10.213,5.207,15.77c2.355,16.452-8.922,36.595-29.923,32.028c-1.241-0.27-7.624,1.999-6.438,2.62
					c8.49,4.448,18.169,11.303,19.127,21.485c1.177,12.511-3.759,23.854,5.995,34.19c3.232,3.425,7.02,4.663,10.885,6.895
					c2.156,1.245,7.98-1.24-1.228,2.014c-4.024,1.421-8.225,2.604-12.432,3.294c-16.621,2.725-29.768-4.238-38.14-18.056
					c0.156-0.429,0.1-0.882-0.265-1.328c-7.518-9.167-8.986-18.24-11.097-29.481c-1.48-7.881-4.53-14.604-12.104-18.056
					c-2.336-1.065-8.947,2.258-5.75,3.716c10.507,4.79,10.155,16.445,12.143,26.178c1.369,6.7,4.122,12.576,8.054,17.982
					c-7.625,6.005-16.634,11.281-25.971,13.076c-0.289,0.007-0.603,0.033-0.964,0.098c-0.305,0.055-0.601,0.13-0.905,0.189
					c-6.719,0.946-13.565,0.038-20.144-3.802c-14.178-8.275-18.236-25.904-9.606-39.58c0.465-0.738-6.05-0.489-7.183,1.307
					c-2.178,3.451-3.522,6.976-4.17,10.464c-0.391,0.078-0.745,0.187-1.029,0.326c-10.819,5.321-21.898,6.417-30.68-3.051
					c-3.802-4.098-6.064-9.307-9.639-13.594c1.604-4.847,1.123-10.17-2.819-15.596c-1.191-1.639-8.228,0.72-6.822,2.655
					c7.126,9.81,1.207,20.25-7.301,26.325c2.346-13.222-7.383-26.683-21.778-26.49c-9.699,0.13-12.327,10.941-21.987,12.748
					c-17.729,3.317-32.445-14.22-22.126-30.008c0.51-0.78,0.207-1.641-0.559-2.087c-6.427-3.738-10.541-11.098-10.61-18.409
					c4.398,6.552,11.955,11.332,18.919,14.26c0.545,0.229,1.106,0.43,1.661,0.644c-0.349,0.049-0.685,0.169-0.873,0.385
					c-3.535,4.053-3.916,9.872-0.777,14.28c0.546,0.768,2.766-0.075,2.125-0.975c-2.751-3.865-2.586-9.136,0.555-12.737
					c0.164-0.189,0.205-0.341,0.201-0.476c4.189,1.508,8.611,2.56,13.07,2.958c-2.191,3.187-1.975,7.836,1.466,10.35
					c0.777,0.568,2.829-0.53,1.792-1.287c-2.687-1.963-3.15-6.389-1.07-8.947c2.641,0.105,5.282,0,7.882-0.415
					c1.437-0.23,2.993-0.772,4.613-1.474c-0.22,0.744-0.307,1.533-0.12,2.354c0.127,0.558,2.447-0.015,2.31-0.619
					c-0.233-1.024-0.067-2.063,0.402-2.952c7.575-3.854,16.146-10.066,21.943-8.055c0.039,0.054,0.059,0.108,0.108,0.161
					c17.557,18.941,52.505,0.682,42.092-24.81c-0.151-0.37-0.423-0.642-0.766-0.842c-0.02-0.012-0.044-0.023-0.068-0.033
					c-1.19-0.643-3.222-0.392-4.715,0.317c-0.607,0.138-1.111,0.292-1.373,0.443c-12.709,7.304-27.028,0.193-32.799-11.527
					c-4.281-8.694-3.067-18.386,0.04-27.264c0.049-0.141,0.106-0.278,0.156-0.418C668.547,491.586,668.876,491.519,669.198,491.404z
					 M564.842,845.452c-0.628,0-1.382,0.225-2.11,0.563c-57.859-1.527-109.976-30.941-150.948-70.447
					c-32.309-31.153-62.245-70.425-77.341-113.174c-4.669-13.222-8.374-27.125-11.211-40.844
					c-2.703-13.07-5.549-29.814,0.937-42.297c1.004,2.124,2.02,4.243,3.038,6.36c-0.119,0.105-0.21,0.219-0.219,0.347
					c-1.435,19.422,2.051,38.56,10.306,56.208c0.359,0.768,2.616,0.037,2.309-0.619c-7.641-16.337-11.173-33.968-10.476-51.919
					c6.021,12.678,11.494,25.471,12.169,39.567c0.176,3.678,7.513,2.437,7.366-0.626c-1.052-21.952-13.013-38.475-20.572-58.408
					c-8.729-23.018-12.414-45.208-8.285-69.789c1.997-11.886,4.824-24.345,11.691-34.439c2.893-4.253,7.995-6.256,10.75-10.137
					c2.439-3.436,2.807-9.185,4.268-13.127c7.585-20.464,22.889-39.064,44.419-44.653c-0.532,1.957-1.013,3.942-1.402,5.976
					c-0.71,3.72,6.754,2.875,7.398-0.504c6.798-35.606,37.863-58.876,73.605-54.884c-3.234,2.514-6.306,5.212-9.154,8.09
					c-2.913,2.945,4.207,2.591,5.79,0.991c14.577-14.735,34.886-25.235,56.091-24.056c17.281,0.961,33.716,12.374,26.142,31.586
					c-0.841,2.133,6.364,1.302,7.268-0.991c2.112-5.357,2.461-10.12,1.508-14.271c20.017-7.112,42.368-0.206,56.963,14.787
					c10.686,10.976,18.54,29.682,9.04,43.778c-0.399,0.592,5.994,0.423,7.177-1.333c2.055-3.049,3.344-6.231,4.011-9.466
					c20.301,2.559,37.271,16.84,41.748,37.511c4.846,22.371-9.042,37.976-15.972,57.51c0.954-24.169,10.003-52.996-18.832-58.473
					c-3.678-0.698-7.338,4.513-2.487,5.434c22.708,4.314,15.781,32.69,13.657,48.374c-1.589,11.732-1.048,23.129,6.559,32.739
					c0.438,0.554,1.088,0.855,1.814,0.977c6.893,12.559,22.822,18.144,38.848,11.868c2.569,6.963,1.769,14.98-3.338,20.683
					c-7.041,7.865-18.383,5.592-24.973-1.517c-0.559-0.604-1.592-0.769-2.699-0.651c-16.896-4.534-27.429,14.34-44.49,10.396
					c-10.087-2.332-23.354-8.865-28.201-18.757c-0.763-1.557-1.459-3.598-1.986-5.831c1.224-0.54,2.107-1.299,1.883-2.066
					c-4.858-16.578,13.647-29.951,4.257-46.433c-6.042-10.606-17.552-13.197-28.835-12.111c-3.269,0.315-6.29,3.834-1.181,3.342
					c18.39-1.77,29.602,14.367,23.57,30.779c-1.27,3.456-2.73,6.686-3.893,9.905c-0.484,0.196-0.879,0.418-1.097,0.661
					c-3.174,3.532-6.882,8.36-11.064,10.666c-5.72,1.203-11.44,2.406-17.161,3.609c-2.721-0.761-5.207-1.975-7.455-3.641
					c-3.016-2.362-6.081-5.867-6.98-9.691c-0.48-2.042-0.203-11.042,3.156-12.088c1.09-0.34,1.838-0.768,2.299-1.194
					c1.51-0.754,2.415-1.537,0.607-1.555c-0.187-0.002-0.375,0-0.562-0.001c-0.449-0.214-1.227-0.237-2.292-0.001
					c-13.099,0.106-26.974,1.998-37.659,10.083c-6.83,5.168-11.211,13.399-11.222,21.564c-2.441-3.208-4.296-6.742-4.961-10.548
					c-1.669-9.55,5.128-20,12.768-25.545c1.243-0.389,2.326-1.021,2.623-1.835c3.897-10.712-11.593-15.348-19.141-17.314
					c-6.122-1.594-12.745-1.345-18.188,1.443c-0.203-2.814-0.622-5.675-1.11-8.531c-0.297-1.74-7.64-0.101-7.29,1.953
					c2.68,15.712,0.848,27.99-15.998,33.986c-11.657,4.15-28.47,5.312-36.85-3.937c0.078-0.467,0.006-0.963-0.314-1.474
					c-6.285-10.055-12.001-25.556-0.264-34.196c3.979-2.928-1.939-5.41-4.824-3.286c-0.974,0.717-1.841,1.473-2.643,2.251
					c-5.176-3.464-8.529-8.908-9.307-15.193c-0.108-0.873-2.428-0.337-2.31,0.619c0.831,6.71,4.602,12.488,10.251,16.045
					c-0.679,0.788-1.293,1.596-1.825,2.431c-0.677,0.021-1.65,0.348-1.669,0.869c-0.002,0.059-0.004,0.118-0.006,0.178
					c-10.596-4.223-16.901-14.409-15.94-26.007c0.065-0.784-2.24-0.32-2.295,0.342c-1.051,12.688,6.249,23.621,18.393,27.403
					c-0.429,0.981-0.754,1.99-1.024,3.012c-16.13,0.189-26.677-15.999-23.004-31.159c0.585-2.414-6.703-1.307-7.264,1.007
					c-1.76,7.263-0.707,13.908,2.24,19.369c-6.887,4.472-12.057,10.851-14.902,18.579c-0.43,1.167,1.871,1.009,2.182,0.166
					c2.636-7.159,7.255-13.104,13.519-17.383c1.566,2.515,3.529,4.759,5.85,6.636c-13.242,11.401-19.601,28.943-16.535,46.217
					c0.133,0.751,2.455,0.201,2.309-0.619c-2.948-16.615,2.916-33.524,15.45-44.708c3.453,2.496,7.529,4.248,11.983,5.085
					c-11.411,4.673-18.327,15.863-19.023,28.044c-0.942,16.491,9.837,30.811,22.039,40.665c0.567,0.458,2.676-0.436,2.158-0.854
					c-10.632-8.586-19.836-20.082-21.664-34.028c-1.737-13.25,4.674-27.948,17.493-33.12c0.355-0.144,0.539-0.283,0.615-0.409
					c1.917,0.258,3.9,0.31,5.915,0.216c-0.355,3.816,0.16,7.784,1.301,11.696c-4.16,0.082-8.091,2.181-10.798,6.375
					c-6.43,9.965-1.656,23.973,5.543,32.061c3.867,4.344,8.61,6.75,13.06,10.379c8.597,7.01,5.639,13.221,3.534,22.213
					c-0.202,0.863-0.393,1.672-0.583,2.453c-0.605-4.822-3.041-9.372-7.073-12.552c-0.609-0.48-2.733,0.423-2.151,0.882
					c6.533,5.152,8.766,13.878,5.658,21.492c-1.313,2.191-3.111,4.287-5.793,6.651c2.694-6.204,2.177-13.366-2.411-19.099
					c-3.439-4.297-8.525-6.223-13.082-9.04c-5.811-3.591-9.364-9.033-12.745-14.832c-0.352-0.603-2.529,0.243-2.31,0.619
					c2.375,4.073,4.789,8.293,8.257,11.558c3.532,3.326,8.004,5.111,12.056,7.662c9.439,5.945,12.207,17.242,6.494,26.259
					c-1.963,1.594-3.877,3.221-5.641,5.058c-0.483,0.237-0.947,0.492-1.389,0.769c1.481-9.624-3.601-19.415-11.167-26.263
					c-0.642-0.581-2.818,0.317-2.137,0.933c7.865,7.118,13.123,17.488,10.605,27.492c-10.159,10.172-5.815,33.909-3.36,45.555
					c0.483,2.292,7.805,0.492,7.289-1.953c-1.725-8.185-6.581-32.669,0.722-41.714c8.145,4.984,11.607,14.794,12.942,23.996
					c0.89,6.136,3.078,20.846-1.887,25.875c-0.155,0.14-0.278,0.281-0.366,0.423c-0.046,0.064-0.073,0.123-0.082,0.177
					c-0.103,0.258-0.088,0.513,0.121,0.745c20.513,22.991,6.116,58.398,14.48,85.355c8.245,26.575,35.937,29.094,55.606,43.723
					c12.302,9.15,22.914,20.36,35.151,29.625c11.435,8.657,23.649,16.306,36.552,22.583c10.546,5.131,21.531,9.273,32.799,12.109
					C573.628,845.452,569.235,845.452,564.842,845.452z M918.894,845.452c0.354-0.67-0.043-1.229-1.881-1.289
					c-40.641-1.335-74.772-28.054-89.401-65.351c-5.545-14.138-11.074-29.767-9.52-45.128c2.523-24.94,15.771-53.033,43.534-56.315
					c3.364-0.398,6.194-4.224,1.106-3.623c-4.503,0.532-8.785,1.619-12.839,3.143c12.11-15.431,31.439-22.044,50.28-17.717
					c-2.931,3.102-5.467,6.773-7.415,11.051c-1.691,3.714,5.649,3.603,6.948,0.751c2.086-4.581,4.886-8.285,8.13-11.153
					c0.967-0.462,1.808-1.114,2.206-1.784c14.716-10.703,36.665-5.848,45.547,13.316c0.044,0.263,0.179,0.493,0.395,0.685
					c1.559,2.078,6.312,0.976,7.071-1.088c13.294-13.122,28.524-12.137,39.725,2.644c0.022-0.043,0.043-0.086,0.065-0.129
					c0.319,0.53,0.935,0.949,1.962,1.072c16.355,1.968,29.763,14.622,45.702,12.313c-5.46,6.368-15.165,12.486-20.259,5.126
					c-1.729-2.497-8.577,0.026-6.699,3.115c1.541,2.535,2.55,4.979,3.094,7.431c-7.427-7.953-18.948-11.145-30.295-8.258
					c-0.143,0.036-0.23,0.103-0.361,0.146c-6.437-3.832-13.608-6.386-21.458-7.201c-1.696-0.176-7.802,2.586-6.003,2.772
					c14.658,1.521,26.703,9.079,36.151,20.155c10.134,11.88,14.181,25.823,21.343,39.304c5.202,9.792,13.376,15.042,22.315,15.326
					c-4.084,1.716-8.169,3.431-12.253,5.147c-1.19-0.269-2.38-0.538-3.571-0.807c-3.843-0.786-7.787-3.031-11.085-5.218
					c-4.576-3.035-8.352-6.795-11.764-11.073c-1.652-2.071-3.104-4.28-4.473-6.547c-0.031-0.141-0.093-0.28-0.229-0.409
					c-0.018-0.018-0.039-0.031-0.058-0.048c-4.323-7.246-7.774-15.09-13.497-21.331c-9.122-9.948-21.828-11.524-33.1-4.552
					c-2.99,1.85,4.25,0.952,5.562,0.14c12.76-7.892,22.892,8.459,29.535,20.447c-6.266-0.936-13.082,0.368-18.647,3.242
					c-3.062-5.573-7.184-10.277-12.753-14.242c-2.742-1.952-9.046,1.854-5.59,4.314c12.079,8.6,13.027,19.878,18.862,32.346
					c3.119,6.665,7.822,12.096,13.573,16.38c-6.379,0.445-12.541-0.728-18.708-3.392c-4.373-3.062-7.505-7.583-8.871-12.95
					c-0.625-2.457-7.927-0.552-7.289,1.953c0.218,0.857,0.499,1.687,0.803,2.505c-13.389,4.323-26.712-3.333-31.548-16.469
					c-1.196-3.25-8.454-1.21-7.289,1.953c1.705,4.632,4.222,8.538,7.315,11.674c-2.011,3.141-2.244,6.859-0.921,9.939
					c-6.971-4.167-11.521-13.072-13.421-20.346c-2.902-11.112-0.895-22.126,3.867-32.388c0.839-1.807-6.206,0.271-6.905,0.878
					c-5.588,4.851-12.623,7.377-19.8,8.782c-0.437-0.024-0.92,0.003-1.455,0.111c-0.182,0.036-0.365,0.069-0.547,0.105
					c-1.272-0.313-3.268,0.097-4.655,0.823c-11.248,1.73-22.763,1.378-31.503-7.087c-2.035-1.971-8.943,0.853-6.731,2.995
					c1.728,1.673,3.557,3.057,5.453,4.234c-0.218,0.059-0.422,0.144-0.565,0.284c-4.603,4.495-6.659,10.65-5.763,17.009
					c0.151,1.075,2.467,0.499,2.31-0.619c-0.834-5.916,1.125-11.531,5.389-15.695c0.044-0.043,0.051-0.079,0.084-0.12
					c9.141,5.021,19.872,5.057,30.409,3.516c0.521,3.67-0.405,7.52-2.753,10.323c-2.342,0.239-5.691,1.949-5.329,2.441
					c0.32,0.433,0.593,0.882,0.886,1.324c-0.24,0.469-0.172,0.973,0.513,1.406c0.149,0.095,0.32,0.159,0.498,0.211
					c5.529,9.607,5.044,20.905-1.261,29.508c-0.398,0.18-0.683,0.454-0.608,0.754c-0.171,0.217-0.343,0.433-0.521,0.646
					c-1.894-0.267-5.463,0.563-6.161,2.103c-5.481,12.089,5.436,24.73,13.739,32.544c9.31,8.763,20.466,14.534,32.74,17.902
					c2.148,0.59,8.516-2.649,4.521-3.745c-11.412-3.131-21.833-8.798-30.47-16.929c-7.13-6.711-16.342-16.933-14.337-27.291
					c0.806-0.193,1.494-0.434,1.848-0.702c0.072-0.055,0.134-0.116,0.206-0.172c4.359,10.865,11.597,20.109,18.961,29.208
					c0.501,0.62,2.723-0.192,2.144-0.907c-7.514-9.283-14.882-18.733-19.158-29.922c1.149-1.04,2.174-2.155,3.12-3.312
					c6.855,15.564,18.641,28.255,33.794,36.204c0.874,0.459,2.905-0.731,1.784-1.32c-15.407-8.082-27.267-21.116-33.905-37.14
					c1.455-2.174,2.582-4.489,3.367-6.898c5.054,10.167,11.523,19.457,19.414,27.735c0.666,0.698,2.862-0.207,2.124-0.981
					c-8.553-8.973-15.448-19.105-20.638-30.307c1.175-6.452,0.024-13.291-3.709-19.469c1.604-1.214,2.975-2.677,4.054-4.311
					c0.422,9.487,5.555,20.139,9.275,27.005c7.352,13.569,18.255,24.785,31.491,32.676c0.722,0.431,2.824-0.593,1.818-1.193
					c-12.086-7.206-22.187-17.213-29.402-29.307c-5.994-10.047-15.989-30.275-7.786-41.232c0.149-0.199,0.132-0.342,0.035-0.447
					c1.632-0.382,3.256-0.806,4.861-1.296c-4.72,11.684-0.53,25.663,5.113,36.296c0.419,0.789,2.659,0.04,2.31-0.619
					c-5.632-10.612-10.084-24.959-4.899-36.532c2.587-0.903,5.1-1.976,7.517-3.231c-6.001,19.331-2.036,51.011,21.438,51.907
					c2.068,5.192,6.21,9.478,9.883,13.594c5.277,5.912,11.014,11.363,17.075,16.462c0.633,0.532,2.787-0.369,2.143-0.911
					c-5.51-4.636-10.754-9.557-15.626-14.863c-3.885-4.232-8.524-8.887-10.893-14.307c0.475-0.026,0.939-0.032,1.429-0.082
					c0.608-0.062,6.505-2.078,4.998-2.763c-3.454-1.572-5.274-4.713-5.333-8.064c7.618,4.76,17.167,6.043,26.536,3.481
					c2.513,11.176,8.04,21.074,16.332,29.073c0.594,0.573,2.776-0.301,2.142-0.912c-7.815-7.539-13.154-16.786-15.798-27.199
					c1.498,2.042,3.307,3.836,5.36,5.339c0.07,0.665,0.535,1.3,1.575,1.777c2.296,1.052,4.601,1.876,6.915,2.551
					c-0.328,0.48-0.429,1.02-0.149,1.589c10.292,20.875,26.759,34.75,46.19,43.972c-28.481-5.306-57.196-17.936-70.908-45.014
					c-0.352-0.695-2.585,0.075-2.31,0.619c14.055,27.754,43.589,40.45,72.762,45.713c0.43,0.077,1.497-0.363,1.761-0.725
					c13.635,6.285,28.667,10.342,44.036,12.936C1015.136,845.452,967.015,845.452,918.894,845.452z"/>
				<path d="M459.022,674.025c-27.849-61.979-13.535-135.573,35.663-182.44c0.455-0.434-1.683-0.189-2.085,0.194
					c-49.324,46.987-63.83,120.676-35.887,182.864C456.953,675.178,459.191,674.401,459.022,674.025z"/>
				<path d="M455.514,711.295c-7.894-11.65-13.748-24.321-17.542-37.869c-0.184-0.659-2.493-0.037-2.309,0.619
					c3.821,13.644,9.744,26.366,17.691,38.094C453.71,712.665,455.95,711.939,455.514,711.295z"/>
				<path d="M528.236,767.062c-8.548-7.744-16.71-15.915-24.44-24.476c-5.853-6.482-12.489-13.081-17.509-20.224
					c-0.378-0.537-3.289-4.564-1.507-4.46c0.745,0.043,2.319,1.877,3.207,2.241c2.379,0.975,4.38-0.257,6.62,1.777
					c1.724,1.567,2.915,4.486,4.272,6.398c1.579,2.225,3.248,4.386,4.984,6.491c3.481,4.221,7.246,8.201,11.165,12.016
					c15.953,15.526,33.924,29.103,51.076,43.258c0.573,0.473,2.695-0.418,2.156-0.863c-18.173-14.998-37.459-29.316-53.993-46.158
					c-3.826-3.897-7.471-7.983-10.799-12.315c-2.399-3.123-5.172-10.063-8.923-11.625c-0.63-0.263-1.33-0.211-1.991-0.359
					c-2.201-0.494-4.066-1.306-6.096-2.025c-1.628-0.577-2.161-0.773-3.878-0.185c-0.321,0.11-0.707,0.343-0.718,0.711
					c-0.11,3.544,2.51,6.424,4.72,8.934c3.415,3.878,6.772,7.79,10.154,11.701c8.216,9.503,16.953,18.555,26.157,27.105
					c18.022,16.741,37.813,31.436,58.93,44.035c0.573,0.342,2.715-0.53,1.858-1.041
					C563.907,796.198,545.304,782.523,528.236,767.062z"/>
				<path d="M472.197,655.691c-0.316-0.957-2.619-0.316-2.309,0.619c15.299,46.259,46.891,86.093,88.445,111.532
					c0.775,0.474,2.85-0.607,1.803-1.248C518.81,741.294,487.412,701.694,472.197,655.691z"/>
				<path d="M465.923,601.386c0.07,0.632,2.395,0.149,2.309-0.619c-2.089-18.817,1.391-37.452,10.086-54.257
					c0.271-0.524-1.951-0.329-2.296,0.338C467.283,563.74,463.825,582.494,465.923,601.386z"/>
				<path d="M509.575,604.708c-0.565-28.106,10.275-55.336,30.014-75.353c0.51-0.517-1.685-0.284-2.101,0.138
					c-19.867,20.146-30.792,47.545-30.223,75.834C507.274,605.766,509.589,605.404,509.575,604.708z"/>
				<path d="M525.635,596.574c-6.01,54.214,14.968,109.646,55.407,146.26c0.536,0.486,2.679-0.383,2.157-0.856
					c-40.276-36.467-61.255-91.733-55.268-145.742C528.018,595.451,525.71,595.893,525.635,596.574z"/>
				<path d="M551.787,736.139c-12.654-13.734-23.934-28.813-32.808-45.27c-4.337-8.042-8.255-16.453-11.105-25.146
					c-1.731-5.279-4.466-11.416-5.046-17.009c-0.254-2.447,0.185-3.624,2.168-0.904c1.259,1.726,1.972,4.33,2.696,6.325
					c0.715,1.973,0.999,5.055,3.569,5.232c3.422,0.237,3.631-4.175,3.699-7.185c2.516,2.058,3.188,6.18,4.107,9.102
					c1.295,4.12,2.662,8.218,4.145,12.274c3.083,8.436,6.649,16.707,10.994,24.575c7.524,13.624,17.403,25.779,30.052,34.945
					c0.517,0.375,2.506-0.547,2.176-0.787c-14.373-10.415-25.075-24.692-32.914-40.506c-3.993-8.054-7.273-16.444-10.141-24.959
					c-1.68-4.988-2.456-15.036-8.557-16.625c-0.469-0.122-2.047,0.129-2.103,0.757c-0.076,0.843-0.027,5.676-1.772,5.35
					c-0.374-0.07-1.758-4.944-2.009-5.542c-0.938-2.243-1.748-5.422-4.496-5.921c-1.581-0.287-3.228,0.351-3.895,1.786
					c-1.43,3.077,2.135,9.965,2.973,12.803c2.664,9.03,5.931,17.696,10.104,26.151c15.931,32.29,40.985,58.891,68.302,81.891
					c16.413,13.819,33.73,26.508,51.03,39.18c0.514,0.377,2.507-0.544,2.176-0.786C605.917,784.47,576.424,762.88,551.787,736.139z"
					/>
				<path d="M488.499,636.355c-3.636-15.308-4.437-30.87-2.354-46.473c0.094-0.703-2.205-0.277-2.29,0.361
					c-2.092,15.674-1.321,31.339,2.336,46.73C486.336,637.593,488.654,637.008,488.499,636.355z"/>
				<path d="M443.336,725.791c-0.365-0.716-2.6,0.049-2.31,0.619c13.84,27.178,39.088,45.144,63.547,62.087
					c0.619,0.429,2.693-0.493,2.155-0.865C482.368,770.757,457.127,752.872,443.336,725.791z"/>
				<path d="M732.724,648.036c-25.255,11.258-43.954,35.568-47.279,63.19c-3.452,28.681,10.286,57.777,33.813,74.213
					c0.543,0.38,2.543-0.543,2.172-0.802c-22.477-15.703-35.944-42.93-34.023-70.406c1.989-28.444,20.773-54.3,46.662-65.841
					C735.457,647.772,733.304,647.777,732.724,648.036z"/>
				<path d="M660.455,727.824c3.014-1.517,1.384-4.746,0.212-7.304c1.483,0.045,2.991-0.605,3.862-1.963
					c0.931-1.452,0.616-2.343,0.114-3.965c-1.284-4.148-3.953-7.685-4.936-12.066c-4.085-18.217,4.463-35.656,16.281-49.024
					c0.972-1.099-1.221-1.559-1.948-0.737c-7.622,8.622-13.9,18.542-16.487,29.878c-1.246,5.46-1.558,11.127-0.833,16.685
					c0.417,3.195,1.203,6.353,2.363,9.359c0.259,0.67,0.547,1.339,0.846,1.993c0.389,0.888,0.825,1.752,1.307,2.593
					c1.177,1.576,0.628,3.155-1.648,4.739c-0.641-0.606-2.226,0.072-2.04,0.996c0.225,1.114,2.175,5.811-0.314,5.667
					c-1.129-0.065-2.607-4.666-2.894-5.477c-1.458-4.111-1.95-8.63-2.251-12.955c-0.676-9.738-0.348-19.623,1.957-29.139
					c5.367-22.16,19.965-41.01,39.778-52.18c1.362-0.768,0.131-2.1-1.043-1.438c-24.669,13.907-41.262,39.13-43.153,67.548
					c-0.655,9.839-0.938,22.462,3.516,31.518C654.31,724.926,657.167,729.478,660.455,727.824z"/>
				<path d="M625.896,697.259c-13.875-30.906-0.519-64.884,20.347-88.943c0.91-1.05-1.316-1.115-1.876-0.469
					c-21.102,24.332-34.838,58.72-20.78,90.031C623.975,698.742,626.248,698.042,625.896,697.259z"/>
				<path d="M644.082,756.732c-40.859-42.673-72.685-101.881-53.867-162.114c0.318-1.019-2.037-0.752-2.334,0.199
					c-18.888,60.454,13.062,120.071,54.08,162.91C642.649,758.445,644.843,757.527,644.082,756.732z"/>
				<path d="M585.411,557.665c0.079-0.101-1.857-0.093-2.27,0.436c-12.815,16.403-19.219,36.591-18.226,57.373
					c0.015,0.313,2.337-0.042,2.309-0.619C566.234,594.121,572.636,574.016,585.411,557.665z"/>
				<path d="M639.77,721.685c-0.275-0.535-2.477,0.294-2.31,0.619c25.22,49.039,72.255,85.14,126.133,96.87
					c0.523,0.114,2.505-0.736,1.905-0.867C711.788,806.614,664.908,770.564,639.77,721.685z"/>
				<path d="M570.481,638.932c-0.109-1.01-2.426-0.456-2.309,0.619c1.636,15.124,6.371,29.44,14.014,42.583
					c0.497,0.855,2.71,0.016,2.119-0.999C576.729,668.107,572.101,653.908,570.481,638.932z"/>
				<path d="M672.753,782.812c-0.618-0.493-2.75,0.41-2.148,0.891c27.319,21.845,59.083,37.365,92.793,45.713
					c-62.512-10.077-120.003-45.607-156.39-98.352c-1.319-1.913-8.392,0.469-6.783,2.802
					c46.603,67.554,127.783,106.822,209.635,102.104c2.577-0.149,7.739-4.25,2.879-3.97c-11.038,0.636-22.047,0.423-32.952-0.54
					C740.792,824.399,703.847,807.675,672.753,782.812z"/>
				<path d="M418.58,610.914c0.241,15.398,2.729,30.49,7.442,45.151c0.209,0.65,2.507-0.004,2.309-0.619
					c-4.713-14.661-7.201-29.752-7.442-45.15C420.881,609.767,418.568,610.153,418.58,610.914z"/>
				<path d="M477.234,722.24c-23.109-26.271-37.675-58.968-41.791-93.708c-0.086-0.732-2.409-0.225-2.309,0.619
					c4.127,34.84,18.784,67.642,41.952,93.98C475.595,723.71,477.803,722.887,477.234,722.24z"/>
				<path d="M460.962,615.797c1.212,7.199,2.968,14.239,5.277,21.164c0.173,0.517,2.463-0.157,2.31-0.619
					c-2.31-6.925-4.065-13.966-5.278-21.164C463.196,614.729,460.867,615.233,460.962,615.797z"/>
				<path d="M474.566,621.544c9.654,44.578,31.629,85.787,63.261,118.647c0.579,0.601,2.776-0.26,2.141-0.919
					c-31.563-32.788-53.459-73.868-63.092-118.347C476.695,620.094,474.378,620.676,474.566,621.544z"/>
				<path d="M861.005,751.534c3.819-1.937,6.804-5.068,8.363-9.077c0.456-1.172-1.852-1.046-2.187-0.184
					c-1.356,3.487-3.804,6.352-7.158,8.053C858.612,751.041,859.886,752.101,861.005,751.534z"/>
				<path d="M860.707,758.744c3.048,6.384,1.13,14.212-4.778,18.227c-0.979,0.665,1.324,0.471,1.792,0.153
					c6.155-4.182,8.529-12.226,5.296-18.999C862.717,757.498,860.482,758.272,860.707,758.744z"/>
				<path d="M857.376,788.793c0.143-0.688-2.154-0.316-2.292,0.352c-3.362,16.183,6.986,29.338,16.862,40.891
					c0.432,0.506,2.63-0.293,2.162-0.841C864.352,817.783,854.054,804.781,857.376,788.793z"/>
				<path d="M852.101,749.117c2.217-2.573,4.434-5.146,6.651-7.719c0.606-0.704-1.68-0.518-2.135,0.01
					c-2.217,2.573-4.434,5.146-6.651,7.719C849.36,749.83,851.647,749.644,852.101,749.117z"/>
				<path d="M849.539,759.916c0.57-1.185-1.762-1.203-2.21-0.271c-3.729,7.757-2.749,16.665,2.631,23.397
					c0.659,0.825,2.855-0.093,2.113-1.021C846.966,775.63,845.987,767.304,849.539,759.916z"/>
				<path d="M839.164,732.673c-1.91,2.561-3.819,5.123-5.729,7.684c-0.485,0.651,1.747,0.358,2.105-0.122
					c1.91-2.562,3.82-5.123,5.729-7.684C841.754,731.9,839.521,732.193,839.164,732.673z"/>
				<path d="M346.808,656.019c-0.219-0.641-2.511,0.031-2.31,0.619c11.312,33.031,27.742,63.998,48.727,91.9
					c0.377,0.501,2.597-0.255,2.165-0.831C374.456,719.872,358.091,688.966,346.808,656.019z"/>
			</g>
			<g>
				<g>
					<path d="M344.65,759.339c-53.67,16.485-114.189,26.971-166.782,1.164c-0.769-0.377-2.874,0.021-1.429,0.73
						c53.548,26.275,115.054,16.068,169.767-0.737C347.509,760.095,345.364,759.119,344.65,759.339z"/>
					<path d="M320.342,806.865c-21.649,8.887-44.664,13.491-68.088,12.997c-1.65-0.035-0.93,1.525,0.356,1.552
						c23.803,0.501,47.234-4.122,69.239-13.156C323.213,807.698,321.234,806.498,320.342,806.865z"/>
					<path style="fill: #fee5c7;" d="M541.305,766.344c-10.902-31.408-34.419-63.194-61.428-82.499
						c-27.557-19.696-62.745-27.078-96.198-25.375c-15.964,0.813-31.251,4.435-46.63,8.586c-6.904,1.864-13.809,4.095-20.966,4.734
						c-13.945,1.245-8.063-9.181-2.858-16.307c3.095,1.86,6.42,3.249,9.34,4.068c17.368,4.873,37.291-1.418,47.961-16.32
						c9.863-13.776,9.533-34.237-6.118-41.16c1.433-2.176,0.344-3.533,0.601-7.527c0.23-3.58,1.983-4.994,2.876-8.872
						c2.045-8.876-5.135-13.951-12.334-16.805c7.482-6.504,14.778-15.002,12.764-25.53c-1.349-7.05-6.269-11.866-12.486-14.172
						c1.914-2.475,2.865-5.641,2.366-8.826c-0.771-4.919-4.506-7.264-8.147-9.815c-3.54-7.497-1.859-17.505,0.385-25.056
						c2.417-8.134,6.646-15.417,12.292-21.65c2.619,2.806,6.396,4.501,10.469,4.57c14.024,0.239,26.828-21.516,16.371-31.36
						c9.228-12.782,2.148-33.824-13.147-38.366c-5.502-1.634-10.982,0.624-15.846-0.486c-2.726-0.622-4.868-1.58-7.126-2.307
						c-3.883-11.936-13.264-20.458-25.831-22.67c-10.237-1.802-23.414,1.603-24.703,12.728c-6.685-3.839-14.042-6.829-21.826-6.025
						c-4.921,0.508-9.461,2.616-12.924,6.17c-2.055,2.109-2.67,4.143-4.149,6.522c-2.215,3.562,0.115,4.132-4.021,1.286
						c-5.682-3.911-9.77-6.609-17.257-5.019c-10.094,2.144-16.916,11.275-17.957,21.117c-2.17-1.06-4.276-1.809-5.913-2.15
						c-1.44-0.301-2.868-0.456-4.275-0.498c-2.577-8.201-8.067-14.19-15.097-18.056c-3.38-7.217-6.078-14.757-5.076-22.864
						c0.732-5.922,3.853-12.735,9.061-15.984c1.263,2.781,4.846,4.709,7.56,5.413c9.626,2.497,23.622-0.39,28.327-9.88
						c5.93-11.96-1.715-28.854-11.757-36.006c-5.606-3.992-12.21-6.065-18.941-6.446c-0.733-15.861-16.641-24.729-30.879-19.787
						c-14.74-8.897-31.61-14.933-48.904-10.642c-12.7,3.152-25.477,12.132-26.905,25.594c-15.316-5.465-32.572-4.099-43.065,10.016
						c-0.424,0.57-0.478,1.121-0.295,1.622c-4.702,0.655-9.317,1.876-13.653,3.823c-4.082,1.832-7.938,4.311-11.302,7.257
						c-3.909,3.424-6.639,8.891-11.566,10.161c-5.294,1.364-11.947,0.791-17.427,1.767c-6.472,1.153-12.872,2.859-19.036,5.156
						c-11.836,4.41-23.024,11.126-31.438,20.655c-11.617,13.157-18.756,36.949-11.041,54.118c-1.063,0.155-2.004,0.694-2.718,1.788
						c-0.551,0.844-0.718,1.626-0.603,2.351c-18.567-2.511-38.781-5.905-50.806,11.232c-11.455,16.323-25.62,25.629-40.814,37.974
						c-11.759,9.554-19.902,22.217-20.858,37.717c-0.803,13.012,3.841,27.45,14.996,35.016c6.931,4.701,19.147,6.496,24.424,13.231
						c0.314,0.657,0.63,1.306,0.949,1.941c0.139,0.277,0.385,0.515,0.696,0.72c4.34,9.406-3.189,21.253-11.063,25.956
						c-12.632,7.545-31.98,4.908-42.406,16.597c-3.196,3.583-4.417,7.694-3.992,12.416c0.626,6.948,3.369,8.767,7.893,11.653
						c-22.144,24.274-19.983,66.603,12.096,80.287c-13.903,17.182-8.159,44.678,11.333,55.934
						c20.918,12.079,46.23,1.948,65.053-10.416c4.011,18.053,11.827,37.434,32.208,40.64c12.56,1.976,30.302-6.155,38.02,8.36
						c5.036,9.472,8.023,18.657,16.341,26.085c7.096,6.336,16.023,10.141,25.575,10.469c14.067,0.484,25.096-8.886,39.017-2.07
						c9.486,4.644,17.64,13.202,26.348,19.175c8.595,5.895,17.536,11.264,26.745,16.141c71.412,37.815,162.212,44.482,231.864-0.962
						c23.239-15.162,39.258-38.575,64.728-49.965c8.763-3.919,18.004-7.062,27.347-8.986c8.878,2.097,14.06,13.841,19.993,19.855
						c4.158,4.216,9.127,7.628,14.491,10.124c10.838,5.042,23.449,6.443,35.122,3.923c15.732-3.395,26.854-12.633,33.303-24.61
						c0.5-0.372,0.68-0.771,0.625-1.165c1.99-3.936,3.479-8.152,4.481-12.538c0.782-0.72,0.837-1.511,0.456-2.213
						C546.032,789.132,545.16,777.451,541.305,766.344z"/>
				</g>
				<g>
					<g>
						<path d="M129.831,326.417c-18.924-7.405-38.435-15.66-59.007-16.625c-8.77-0.411-17.794,0.721-25.858,4.342
							c-4.082,1.833-7.938,4.311-11.302,7.257c-3.909,3.423-6.64,8.891-11.567,10.16c-5.293,1.364-11.947,0.791-17.427,1.767
							c-6.472,1.152-12.872,2.859-19.036,5.155c-11.836,4.41-23.024,11.126-31.437,20.655c-13.98,15.833-21.498,47.079-4.413,63.635
							c1.166-1.313,2.331-2.626,3.497-3.939c-1.166,1.313-2.331,2.626-3.497,3.939c0.836-1.348,1.672-2.696,2.508-4.044
							c-21.269-1.19-48.465-11.189-63.262,9.898c-11.454,16.323-25.62,25.629-40.814,37.974
							c-11.759,9.554-19.902,22.217-20.858,37.717c-0.803,13.012,3.841,27.45,14.996,35.016c7.17,4.863,20.02,6.6,24.967,13.931
							c6.512,9.65-1.529,22.88-9.961,27.917c-12.632,7.545-31.979,4.908-42.406,16.597c-3.196,3.583-4.417,7.694-3.992,12.416
							c0.739,8.208,4.424,9.252,10.52,13.362c-0.192-1.283-0.383-2.567-0.575-3.85c-25.234,24.753-22.876,71.775,13.953,83.921
							c-0.464-1.431-0.929-2.862-1.393-4.292c-17.036,16.835-11.77,46.846,8.817,58.734c22.984,13.272,51.276-0.268,70.433-14.125
							c-2.181-0.664-4.362-1.329-6.543-1.993c3.651,19.443,10.82,42.795,33.371,46.342c12.56,1.976,30.302-6.155,38.02,8.36
							c5.036,9.472,8.022,18.657,16.341,26.085c7.096,6.336,16.023,10.14,25.575,10.469c14.067,0.484,25.096-8.886,39.017-2.07
							c9.486,4.644,17.64,13.202,26.348,19.175c8.594,5.895,17.536,11.264,26.745,16.141
							c71.412,37.815,162.212,44.482,231.864-0.962c23.239-15.162,39.258-38.574,64.728-49.965
							c31.184-13.946,68.426-18.07,94.732,7.644c2.424,2.37,9.188,0.55,5.921-2.643c-34.523-33.745-87.066-23.256-124.415,0.423
							c-9.012,5.714-15.728,15.802-23.77,22.996c-8.302,7.427-17.246,14.168-26.73,20.016
							c-18.478,11.392-38.982,19.378-60.222,23.787c-42.42,8.807-87.039,3.501-127.399-11.639
							c-20.504-7.692-40.038-17.889-58.031-30.375C73.829,835.7,60.194,820.11,40.808,822.825
							c-7.681,1.076-14.213,5.273-22.232,4.925c-9.623-0.418-17.755-5.593-23.77-12.83c-7.496-9.018-8.257-24.833-19.046-30.516
							c-8.687-4.575-19.895-1.091-29.188-1.382c-23.457-0.733-29.369-21.306-33.072-41.03c-0.512-2.725-4.564-3.425-6.543-1.993
							c-15.128,10.943-36.62,22.73-55.759,16.003c-21.026-7.39-27.7-37.195-11.968-52.741c1.52-1.502,0.513-3.664-1.393-4.292
							c-33.021-10.889-33.187-53.737-11.168-75.336c1.259-1.235,0.845-2.893-0.575-3.85c-1.346-0.908-4.558-2.149-5.602-3.436
							c-5.148-6.344-1.385-14.006,4.274-17.819c6.801-4.582,15.365-5.235,23.071-7.335c11.078-3.018,20.976-7.205,26.242-18.1
							c3.783-7.827,3.953-17.869-2.367-24.497c-4.635-4.861-12.847-6.919-18.635-9.737c-10.493-5.109-16.74-14.159-18.142-25.632
							c-4.451-36.412,32.774-47.707,52.571-70.171c4.601-5.221,7.513-12.538,12.871-16.988c5.16-4.286,11.766-5.358,18.284-5.406
							c11.575-0.085,22.996,2.86,34.538,3.506c2.081,0.116,4.559-2.161,2.508-4.045c-2.402-2.205-11.668-10.594-15.266-5.086
							c-3.622,5.544,9.176,8.513,11.769,9.025c2.179,0.431,5.972-1.54,3.497-3.939c-19.305-18.708-3.651-52.82,14.039-66.098
							c10.039-7.535,22.126-12.216,34.338-14.781c5.701-1.197,11.492-1.945,17.313-2.205c2.92-0.13,6.181,0.646,8.81-0.82
							c3.069-1.711,5.515-7.431,8.238-9.975c3.225-3.013,6.895-5.536,10.927-7.349c8.451-3.8,17.882-4.265,26.969-3.253
							c17.581,1.958,34.186,9.035,50.517,15.426C130.698,332.57,134.409,328.208,129.831,326.417L129.831,326.417z"/>
					</g>
					<g>
						<path d="M233.719,432.571c0.685,3.552,1.314,7.008,1.358,10.643c0.275,1.738,0.205,3.452-0.21,5.141
							c-0.481,5.468-4.522,8.556-12.125,9.263c-1.98,0.912-3.96,1.824-5.94,2.735c19.066,18.03,22.43,46.571,12.456,70.176
							c-1.538,3.64,5.405,6.044,6.747,2.87c10.786-25.526,7.442-56.201-13.262-75.781c-2.471-2.337-9.234-0.546-5.94,2.735
							c5.277,5.256,12.299,5.611,18.496,1.207c9.302-6.61,7.628-19.244,5.752-28.974C240.39,429.16,232.982,428.749,233.719,432.571
							L233.719,432.571z"/>
					</g>
					<g>
						<path d="M239.178,480.381c5.272-1.159,9.352-3.442,14.314-5.532c6.322-2.663,13.027-3.997,19.808-5.127
							c12.105-2.018,25.056-3.105,37.03,0.196c15.056,4.15,20.778,14.51,24.43,28.642c1.017,3.935,2.123,7.046,4.912,10.199
							c4.43,5.008,17.113,12.882,7.607,19.516c-2.233,1.559,0.954,3.667,2.488,3.882c23.551,3.303,6.133,28.246-2.668,35.429
							c-1.643,1.341-0.038,3.136,1.534,3.606c7.527,2.253,18.637,11.333,7.964,18.037c-0.796,0.5-0.924,1.403-0.445,2.171
							c2.743,2.993,2.828,6.175,0.255,9.546c-2.02,1.81,0.782,3.485,2.488,3.882c16.705,3.886,11.44,26.27,4.826,35.818
							c-6.643,9.589-19.289,16.254-30.955,16.181c-8.163-0.051-21.094-3.98-22.526-13.441c-1.551-10.246,6.901-10.083,13.909-12.164
							c9.802-2.911,13.404-12.771,8.602-21.889c-5.498-10.442-20.343-16.81-31.457-18.195c-13.218-1.647-27.295,3.794-33.128,16.459
							c-7.019,15.239,4.151,31.534-0.874,46.854c-6.128,18.683-29.275,19.851-40.71,4.582c-1.82-2.43-3.266-5.104-4.478-7.878
							c-0.975-2.232-2.218-4.658-2.083-7.184c0.241-4.491,2.59-5.026,5.92-5.211c3.637-0.202,5.703,2.439,9.693,0.454
							c4.867-2.421,7.037-9.389,7.744-14.335c1.852-12.96-3.477-30.401-14.756-38.02c-4.116-2.78-9.385-3.216-13.415-5.854
							c-4.896-3.204-12.572-9.904-7.859-16.411c1.505-2.078,4.849-2.796,6.878-4.08c4.162-2.634,7.876-6.089,4.621-10.996
							c-1.505-2.268-8.804-2.221-6.748,0.878c3.691,5.563-6.537,6.926-9.452,9.408c-2.398,2.041-3.843,4.944-4.113,8.084
							c-0.62,7.218,4.782,12.261,10.628,15.362c6.756,3.584,14.415,4.635,19.314,11.085c3.014,3.969,5.002,8.773,6.303,13.567
							c2.116,7.794,3.893,27.561-7.649,26.055c-4.376-0.571-7.145-3.107-11.372,0.28c-5.493,4.401-3.028,12.158-0.604,17.572
							c6.468,14.446,21.652,25.695,38.035,22.707c18.416-3.359,24.07-20.085,21.798-36.699c-1.55-11.336-4.473-23.363,3.402-33.171
							c10.574-13.168,30.23-10.751,42.171-0.731c9.141,7.67,9.693,20.445-2.857,23.592c-5.093,1.277-10.418,1.461-13.333,6.534
							c-7.323,12.747,7.936,22.632,18.193,25.509c17.369,4.873,37.291-1.418,47.961-16.32c10.758-15.026,9.403-38.018-10.749-42.705
							c0.829,1.294,1.659,2.588,2.488,3.882c4.388-3.933,2.407-4.642,2.743-9.863c0.231-3.58,1.983-4.994,2.876-8.872
							c2.442-10.599-8.27-15.779-16.461-18.23c0.511,1.202,1.022,2.404,1.534,3.606c8.26-6.742,17.605-15.964,15.357-27.711
							c-1.707-8.922-9.124-14.284-17.665-15.482c0.829,1.294,1.659,2.588,2.488,3.882c3.638-2.539,5.754-6.954,5.058-11.399
							c-1.259-8.036-10.43-9.2-14.18-15.622c-4.369-7.483-3.628-16.638-8.942-24.033c-3.261-4.538-7.611-8.097-12.491-10.761
							c-11.065-6.041-24.295-7.065-36.654-6.418c-8.265,0.433-16.455,1.728-24.533,3.498c-8.842,1.938-16.444,6.997-25.139,8.908
							C231.498,476.958,236.053,481.068,239.178,480.381L239.178,480.381z"/>
					</g>
					<g>
						<path d="M54.808,550.168c-18.518,15.413-36.222,34.69-43.15,58.317c-6.849,23.361,0.585,45.676,13.07,65.61
							c26.758,42.721,64.861,79.917,109.111,104.211c20.089,11.03,42.095,20.002,64.622,24.519
							c21.969,4.405,44.663,4.6,66.866,1.984c23.204-2.734,46.03-8.558,67.865-16.837c19.709-7.472,37.665-18.929,58.204-24.104
							c23.95-6.034,49.443-6.99,73.871-3.628c25.839,3.556,51.784,12.487,71.252,30.389c0.394,0.363,2.625,0.532,2.167,0.111
							c-28.302-26.026-70.008-33.974-107.327-33.093c-18.868,0.445-38.082,3.181-55.854,9.714
							c-8.958,3.293-17.198,8.111-25.848,12.096c-11.465,5.282-23.276,9.812-35.323,13.582
							c-23.552,7.371-48.109,11.939-72.807,12.585c-26.898,0.703-52.397-4.263-77.402-14.061
							c-49.44-19.372-91.603-55.051-123.25-97.275c-15.965-21.3-32.52-46.102-29.135-74.036
							c3.448-28.456,24.199-51.808,45.379-69.436C57.351,550.625,55.298,549.76,54.808,550.168L54.808,550.168z"/>
					</g>
					<g>
						<path d="M106.117,653.955c13.033,30.34,42.302,48.814,70.996,62.498c28.024,13.364,57.433,19.434,88.33,21.198
							c15.992,0.913,32.074,0.415,47.919-2.015c16.492-2.529,31.578-8.406,47.581-12.666c32.83-8.738,69.5-4.36,101.813,4.578
							c13.719,3.795,26.549,9.104,38.959,16.088c14.136,7.956,29.051,17.842,37.535,32.065c0.363,0.609,2.637,0.664,2.393,0.254
							c-12.42-20.823-38.202-34.487-60.065-43.234c-25.867-10.35-55.3-15.063-83.062-15.173c-14.614-0.058-29.444,1.354-43.46,5.668
							c-17.141,5.276-33.642,10.553-51.586,12.562c-32.94,3.687-69.216,0.863-100.728-9.792
							c-19.318-6.532-38.279-15.923-55.149-27.39c-16.612-11.291-31.064-25.72-39.082-44.386
							C108.24,653.582,105.895,653.438,106.117,653.955L106.117,653.955z"/>
					</g>
					<g>
						<path d="M171.934,686.355c25.97,14.87,53.07,28.166,82.844,33.156c36.162,6.061,72.882,0.035,107.846-9.678
							c1.326-0.368-0.797-1.408-1.547-1.2c-34.834,9.677-71.523,15.785-107.53,9.426c-28.805-5.086-55.006-18.076-80.173-32.487
							C172.587,685.122,170.53,685.551,171.934,686.355L171.934,686.355z"/>
					</g>
					<g>
						<path d="M197.61,560.687c-27.864,6.086-63.354,20.25-69.186,52.266c-5.031,27.617,16.903,56.077,39.159,69.629
							c0.523,0.319,2.93,0.338,1.858-0.315c-21.972-13.379-43.563-41.555-38.584-68.815c5.779-31.645,40.779-45.725,68.337-51.744
							C200.441,561.435,198.226,560.552,197.61,560.687L197.61,560.687z"/>
					</g>
					<g>
						<path d="M207.561,521.477c-15.581-12.618-38.181-14.787-57.386-11.947c-19.221,2.842-40.434,11.991-47.443,31.582
							c-0.346,0.968,2.064,1.531,2.433,0.499c6.59-18.42,26.402-27.298,44.467-30.261c18.513-3.036,40.865-1.376,55.984,10.868
							C206.379,522.837,208.699,522.399,207.561,521.477L207.561,521.477z"/>
					</g>
					<g>
						<path d="M186.742,538.503c-26.734-2.04-50.441,9.076-68.024,28.951c-18.124,20.487-30.316,50.191-17.043,76.494
							c0.314,0.623,2.63,0.724,2.393,0.253c-12.772-25.311-1.756-54.01,15.327-74.164c17.186-20.276,40.798-32.639,67.825-30.576
							C188.909,539.59,187.771,538.581,186.742,538.503L186.742,538.503z"/>
					</g>
					<g>
						<path d="M126.656,494.57c2.351-12.645,17.796-14.354,28.311-13.725c15.558,0.93,30.839,6.925,43.293,16.188
							c0.957,0.712,2.826-0.205,1.521-1.176c-13.722-10.206-31.018-16.66-48.214-16.852c-10.692-0.119-25.036,2.651-27.344,15.066
							C124.014,495.19,126.448,495.687,126.656,494.57L126.656,494.57z"/>
					</g>
					<g>
						<path d="M325.567,617.236c-11.283-2.452-22.916,0.033-32.471,6.502c-11.982,8.113-21.143,24.285-23.762,38.33
							c-5.133,27.526,23.391,43.638,47.059,43.149c14.696-0.304,28.916-4.91,43.074-8.368c15.737-3.844,32.612-8.394,48.928-8.5
							c21.631-0.14,44.586,10.429,63.297,20.295c25.039,13.202,50.144,31.303,64.116,56.537c0.339,0.612,2.628,0.684,2.392,0.258
							c-10.839-19.576-28.457-34.653-47.006-46.698c-18.176-11.803-38.289-21.389-59.185-27.257
							c-7.202-2.022-14.634-3.688-22.128-4.046c-12.483-0.596-25.433,2.51-37.557,5.116c-28.782,6.186-72.367,25.399-94.397-4.639
							c-11.19-15.257-5.665-32.267,2.948-47.292c8.911-15.546,26.14-26.54,44.519-22.547
							C326.811,618.383,327,617.547,325.567,617.236L325.567,617.236z"/>
					</g>
					<g>
						<path d="M176.439,761.233c53.548,26.275,115.054,16.068,169.767-0.737c1.304-0.4-0.841-1.376-1.556-1.157
							c-53.67,16.485-114.189,26.971-166.782,1.164C177.1,760.126,174.994,760.524,176.439,761.233L176.439,761.233z"/>
					</g>
					<g>
						<path d="M78.382,585.088c-7.123,8.619-11.446,18.744-12.616,29.881c-0.071,0.678,2.372,1.086,2.433,0.499
							c1.164-11.084,5.37-21.062,12.481-29.666C81.089,585.308,78.81,584.57,78.382,585.088L78.382,585.088z"/>
					</g>
					<g>
						<path d="M313.415,714.606c-35.916-1.028-75.441-5.206-106.438-25.121c-18.799-12.078-37.965-32.923-38.711-56.122
							c-0.918-28.571,27.24-52.201,55.147-44.116c1.067,0.309,2.49-0.475,0.868-0.945c-20.98-6.078-43.103,3.319-53.33,22.731
							c-10.641,20.196-3.066,42.536,11.233,58.622c14.762,16.608,32.714,27.691,53.902,34.578
							c25.021,8.133,51.574,10.834,77.754,11.583C315.512,715.864,314.563,714.638,313.415,714.606L313.415,714.606z"/>
					</g>
					<g>
						<path d="M219.981,677.948c-13.921-11.07-27.672-24.719-27.559-43.805c0.052-8.786,3.182-18.571,10.488-24.01
							c9.232-6.872,23.293-5.821,33.127-1.094c0.895,0.43,2.929-0.25,1.474-0.949c-17.563-8.441-40.847-4.51-46.359,16.439
							c-6.012,22.852,10.431,40.951,26.906,54.051C218.752,679.129,221.099,678.837,219.981,677.948L219.981,677.948z"/>
					</g>
					<g>
						<path d="M214.121,659.419c-4.593-5.751-6.084-13.11-4.568-20.289c0.697-3.301,1.948-7.18,4.387-9.625
							c5.1-5.11,14.56-2.564,20.016,0.367c0.862,0.463,2.893-0.137,1.465-0.904c-7.306-3.925-19.889-6.748-25.171,1.68
							c-5.541,8.842-4.841,20.914,1.63,29.016C212.408,660.323,214.843,660.323,214.121,659.419L214.121,659.419z"/>
					</g>
					<g>
						<path d="M280.667,618.172c12.599-14.188,32.091-16.157,48.087-6.096c0.448,0.282,2.84,0.448,1.831-0.187
							c-16.849-10.597-38.51-9.844-52.223,5.599C278.017,617.876,280.246,618.645,280.667,618.172L280.667,618.172z"/>
					</g>
					<g>
						<path d="M535.105,759.053c-9.359-17.247-23.328-31.825-37.79-44.886c-12.812-11.571-26.587-22.536-41.411-31.438
							c-15.059-9.043-32.956-11.639-50.307-11.695c-27.528-0.089-54.377,6.826-81.373,11.27
							c-11.256,1.853-41.725,8.783-40.171-10.624c1.021-12.753,11.824-25.065,24.879-25.587c1.599-0.064-0.301-1.113-1.058-1.082
							c-9.473,0.379-17.419,5.834-22.086,13.99c-3.936,6.879-7.216,17.427,0.377,23.067c6.534,4.853,16.172,4.315,23.8,3.525
							c14.086-1.459,28.022-4.409,41.929-7.002c29.81-5.559,62.12-11.143,91.558-0.768c15.026,5.295,28.837,17.174,40.928,27.143
							c18.438,15.202,36.817,32.657,48.326,53.863C533.06,759.48,535.39,759.579,535.105,759.053L535.105,759.053z"/>
					</g>
					<g>
						<path d="M313.469,714.341c-14.832-0.218-30.807-0.349-43.976-8.108c-11.308-6.662-23.294-22.625-14.454-35.676
							c0.688-1.016-1.643-1.828-2.255-0.924c-8.527,12.589,1.491,28.359,12.203,35.871c14.157,9.928,32.169,10.331,48.801,10.575
							C315.425,716.104,314.826,714.361,313.469,714.341L313.469,714.341z"/>
					</g>
					<g>
						<path d="M252.61,821.414c23.803,0.501,47.235-4.122,69.24-13.156c1.363-0.56-0.615-1.76-1.507-1.393
							c-21.649,8.887-44.664,13.491-68.088,12.997C250.605,819.827,251.324,821.386,252.61,821.414L252.61,821.414z"/>
					</g>
					<g>
						<path d="M35.917,629.056c3.64-24.524,16.87-46.913,36.828-61.67c0.49-0.362-1.667-1.212-2.291-0.751
							c-20.022,14.804-33.319,37.322-36.97,61.922C33.373,629.301,35.813,629.759,35.917,629.056L35.917,629.056z"/>
					</g>
					<g>
						<path d="M-6.458,612.526c2.737-28.983,20.784-56.074,47.171-68.72c0.12-0.058-1.683-0.951-2.312-0.65
							C11.975,555.82-6.15,582.998-8.891,612.027C-8.941,612.557-6.496,612.93-6.458,612.526L-6.458,612.526z"/>
					</g>
					<g>
						<path d="M121.313,541.797c22.399-17.86,53.666-24.577,80.697-13.749c0.724,0.29,2.89-0.052,1.412-0.645
							c-28.261-11.321-60.814-5.169-84.399,13.636C118.512,541.448,120.701,542.285,121.313,541.797L121.313,541.797z"/>
					</g>
					<g>
						<path d="M146.239,501.65c18.327-4.248,37.157-2.743,54.305,5.14c0.626,0.288,2.816,0.194,1.376-0.468
							c-18.175-8.355-38.257-10.03-57.695-5.524C143.54,500.957,145.641,501.789,146.239,501.65L146.239,501.65z"/>
					</g>
					<g>
						<path d="M143.001,474.691c8.481-2.708,17.091-3.221,25.772-1.138c1.451,0.348,1.695-0.861,0.248-1.208
							c-9.215-2.212-18.551-1.74-27.565,1.139C140.134,473.906,142.249,474.931,143.001,474.691L143.001,474.691z"/>
					</g>
					<g>
						<path d="M84.585,512.474c-2.521,2.076-4.796,4.393-6.83,6.949c-0.695,0.873,1.636,1.674,2.263,0.885
							c1.943-2.442,4.101-4.651,6.511-6.636C87.537,512.842,85.336,511.856,84.585,512.474L84.585,512.474z"/>
					</g>
					<g>
						<path d="M134.179,574.351c17.377-15.846,40.893-24.783,64.483-21.581c1.459,0.198,1.77-1.086,0.265-1.291
							c-24.568-3.334-48.857,5.481-67.023,22.047C131.248,574.123,133.522,574.949,134.179,574.351L134.179,574.351z"/>
					</g>
					<g>
						<path d="M159.766,596.973c10.178-13.747,25.766-19.851,42.285-21.954c1.264-0.161-0.921-1.16-1.572-1.077
							c-16.757,2.133-32.67,8.319-43.004,22.278C157.005,596.855,159.333,597.559,159.766,596.973L159.766,596.973z"/>
					</g>
					<g>
						<path d="M201.362,561.182c1.393,0.097,2.786,0.194,4.18,0.29c0.394,0.027,1.057-0.045,1.002-0.568
							c-0.052-0.496-1.058-0.704-1.41-0.728c-1.393-0.097-2.786-0.194-4.179-0.291c-0.394-0.027-1.057,0.045-1.002,0.568
							C200.004,560.95,201.01,561.157,201.362,561.182L201.362,561.182z"/>
					</g>
					<g>
						<path d="M187.744,615.43c4.978-17.617,30.631-21.125,45.51-16.883c0.993,0.283,2.467-0.29,0.829-0.757
							c-15.852-4.519-43.416-1.813-48.772,17.141C185.14,615.537,187.551,616.113,187.744,615.43L187.744,615.43z"/>
					</g>
					<g>
						<path d="M202.116,627.986c4.492-14.013,25.916-12.927,36.507-8.464c1.151,0.485,2.447-0.552,0.919-1.196
							c-7.111-2.996-14.889-4.293-22.537-2.84c-6.856,1.303-15.039,4.878-17.322,12.002
							C199.4,628.369,201.812,628.934,202.116,627.986L202.116,627.986z"/>
					</g>
					<g>
						<path d="M287.045,603.803c10.505-5.114,21.986-6.146,32.96-1.795c1.044,0.414,2.422-0.284,0.859-0.904
							c-11.777-4.671-24.477-3.791-35.809,1.725C284.172,603.259,286.4,604.117,287.045,603.803L287.045,603.803z"/>
					</g>
					<g>
						<path d="M292.183,617.346c11.733-4.941,24.399-5.607,36.276-0.581c0.557,0.236,2.789,0.281,1.347-0.329
							c-12.946-5.478-27.012-5.191-39.933,0.251C289.749,616.738,291.53,617.621,292.183,617.346L292.183,617.346z"/>
					</g>
					<g>
						<path d="M294.38,638.967c5.955-7.171,15.104-11.487,24.482-9.882c1.51,0.258,1.888-1.491,0.359-1.752
							c-10.4-1.779-20.448,2.687-27.092,10.687C291.335,638.976,293.652,639.844,294.38,638.967L294.38,638.967z"/>
					</g>
					<g>
						<path d="M372.092,708.782c27.592-7.655,58.647-2.092,85.289,6.664c29.557,9.714,58.388,25.719,78.529,49.87
							c0.394,0.472,2.748,0.653,2.192-0.013c-21.182-25.399-51.951-41.892-83.152-51.613c-26.677-8.312-57.417-13.397-84.867-5.782
							C369.351,708.11,371.484,708.951,372.092,708.782L372.092,708.782z"/>
					</g>
					<g>
						<path d="M357.388,756.653c25.98-14.045,58.445-16.621,87.399-14.821c32.964,2.049,68.452,11.192,92.581,35.033
							c0.388,0.384,2.65,0.561,2.171,0.088c-18.533-18.311-43.989-27.905-69.196-32.662c-25.852-4.879-52.955-5.157-78.841-0.357
							c-12.592,2.335-25.115,5.945-36.424,12.059C354.894,756.091,356.775,756.984,357.388,756.653L357.388,756.653z"/>
					</g>
					<g>
						<path d="M434.123,806.275c9.755,1.109,15.162,13.783,21.402,20.109c4.158,4.216,9.127,7.628,14.491,10.123
							c10.838,5.043,23.449,6.443,35.122,3.924c34.545-7.455,46.944-43.039,36.168-74.086
							c-10.902-31.408-34.418-63.194-61.428-82.499c-27.557-19.696-62.745-27.078-96.198-25.375
							c-15.964,0.813-31.251,4.434-46.63,8.586c-6.904,1.864-13.809,4.095-20.966,4.734c-15.192,1.356-6.851-11.143-1.492-18.133
							c1.485-1.937-5.488-4.088-6.865-2.292c-3.909,5.099-11.903,14.428-5.813,20.633c4.214,4.293,12.671,3.808,18.016,3.267
							c11.229-1.137,22.133-5.088,33.042-7.798c16.249-4.035,32.459-6.224,49.254-5.547c42.915,1.73,78.931,21.619,104.547,55.687
							c20.22,26.89,46.266,69.809,21.547,101.896c-15.682,20.356-47.242,25.618-66.161,6.559
							c-9.681-9.752-14.436-21.572-29.344-23.267C427.791,802.227,430.838,805.901,434.123,806.275L434.123,806.275z"/>
					</g>
					<g>
						<path d="M220.598,539.488c-4.148,5.751-8.216,10.096-15.805,9.212c-6.697-0.781-10.507-4.881-14.449-10.104
							c-0.933,0.853-1.865,1.706-2.798,2.559c17.754-0.383,27.663-18.471,21.19-34.611c-5.762-14.367-20.925-25.193-34.085-32.424
							c-11.493-6.315-26.441-11.757-39.343-6.404c-13.861,5.751-21.087,24.682-8.578,35.37c0.771-1.03,1.541-2.06,2.312-3.09
							c-7.313-0.86-13.984,0.206-20.447,3.838c-5.665,3.184-9.583,6.853-16.6,6.509c-7.116-0.349-13.827-3.713-20.262-6.496
							c-1.596-0.69-6.116-0.572-4.738,2.161c1.41,2.796,4.51,3.594,7.474,3.269c1.439-0.158,2.636-1.038,1.883-2.531
							c-0.893-1.771-2.894-2.205-4.619-2.898c-0.933-0.375-4.941-0.962-5.025,1.026c-0.136,3.237-1.228,9.38,0.603,12.33
							c1.894,3.051,10.917,4.476,13.673,5.646c15.765,6.689,25.567,29.119,25.672,45.74c0.031,4.944-0.586,10.421-3.556,14.596
							c-4.971,6.988-13.606,8.517-20.264,1.979c-4.847-4.761-5.746-16.479-9.541-22.669c-6.071-9.903-16.237-16.238-27.279-19.283
							c-22.363-6.167-46.663,2.224-59.732,21.601c-16.687,24.739-13.418,56.068-2.237,82.252
							c12.852,30.095,33.754,57.749,55.409,82.029c22.32,25.026,47.839,47.252,76.209,65.181
							c51.913,32.807,114.595,49.817,175.649,37.284c17.32-3.555,34.387-9.191,49.926-17.704
							c15.631-8.564,29.79-19.509,45.201-28.436c19.117-11.074,39.512-16.965,61.705-14.371
							c21.873,2.557,42.944,11.444,61.772,22.556c2.596,1.532,8.604-0.302,4.409-2.778c-24.512-14.468-53.231-25.605-82.114-24.807
							c-30.646,0.847-54.794,17.812-79.561,33.941c-58.971,38.405-131.978,39.824-195.59,11.457
							C91.365,782.119,36.708,727.802,0.785,666.045c-16.054-27.598-26.958-62.652-11.139-92.886
							c15.874-30.341,63.656-40.328,79.731-4.265c4.94,11.082,7.023,25.455,21.901,26.185c12.092,0.594,21.009-8.982,22.51-20.391
							c1.788-13.596-4.027-28.181-11.345-39.44c-3.972-6.11-9.077-12.065-15.593-15.534c-2.234-1.19-4.38-1.973-6.847-2.643
							c-7.832-2.128-6.367-1.878-5.995-10.702c-1.675,0.342-3.35,0.684-5.025,1.026c0.214,0.041,0.428,0.082,0.643,0.123
							c0.628-0.844,1.256-1.687,1.883-2.531c0.737,0.082,1.475,0.165,2.212,0.247c-1.579,0.72-3.159,1.44-4.738,2.161
							c9.024,3.903,17.973,7.726,28.009,7.273c12.979-0.586,19.199-11.973,33.181-10.328c1.849,0.217,4.364-1.336,2.312-3.09
							c-12.441-10.63-0.265-29.266,13.161-31.137c10.488-1.462,21.581,4.649,30.096,10.064c8.16,5.19,16.633,11.651,22.197,19.649
							c8.093,11.635,7.563,36.572-11.524,36.984c-1.159,0.025-4.233,0.656-2.798,2.559c12.059,15.98,31.03,20.354,43.797,2.651
							C229.234,539.496,222.202,537.264,220.598,539.488L220.598,539.488z"/>
					</g>
					<path d="M538.659,798.308c-6.044,3.476-12.857-0.251-17.787-3.454c-2.696-1.752-8.413,1.054-4.518,3.585
						c7.247,4.709,17.678,9.263,26.477,4.203C546.807,800.356,541.396,796.734,538.659,798.308z"/>
					<path d="M-125.29,554.798c-11.337-22.599-21.557-61.6,9.712-76.555c2.626-1.256-3.705-3.729-5.673-2.788
						c-32.296,15.445-22.908,55.348-11.023,79.04C-131.226,556.583-124.378,556.615-125.29,554.798z"/>
					<path d="M-128.301,702.51c-11.398-5.527-23.881-7.04-36.732-3.845c-4.683,1.164-0.415,5.268,2.653,4.505
						c10.328-2.568,20.392-1.898,29.639,2.585C-130.123,707.025-124.158,704.519-128.301,702.51z"/>
					<path d="M32.783,493.204c2.294-20.245-2.797-41.019-23.595-44.289c-4.074-0.641-4.722,1.74-0.552,2.395
						c17.424,2.74,18.832,25.552,17.121,40.646C25.537,493.894,32.609,494.739,32.783,493.204z"/>
					<path d="M76.371,515.289c-6.094-3.262-12.304-5.223-19.052-6.203c-4.326-11.317-13.702-17.365-25.335-18.519
						c-4.812-0.478-2.259,3.618,1.035,3.945c9.03,0.896,15.153,7.553,17.898,16.026c0.515,1.589,2.652,1.946,4.02,2.076
						c6.428,0.61,11.642,2.337,17.142,5.281C74.344,519.107,80.433,517.463,76.371,515.289z"/>
					<g>
						<path d="M50.911,338.003c18.888-3.689,28.705,14.962,34.502,29.584c1.077,2.717,8.436,3.18,7.281,0.266
							c-7.58-19.121-21.316-38.994-44.682-34.43C43.224,334.357,47.713,338.628,50.911,338.003L50.911,338.003z"/>
					</g>
					<g>
						<path d="M120.021,409.579c1.657-13.488,20.427-17.146,31.363-14.747c4.509,0.989,5.564-4.158,1.056-5.147
							c-13.622-2.988-37.623,1.335-39.719,18.397C112.289,411.604,119.596,413.035,120.021,409.579L120.021,409.579z"/>
					</g>
					<g>
						<path d="M91.459,368.98c14.824-0.932,32.126,9.708,33.046,25.626c0.112,1.93,7.292,2.529,7.231,1.483
							c-1.224-21.186-26.909-30.773-45.089-29.63C83.259,366.672,89.983,369.073,91.459,368.98L91.459,368.98z"/>
					</g>
					<g>
						<path d="M266.544,570.293c0.927-10.785-3.138-21.027-12.869-26.509c-2.008-1.132-4.188-2.006-6.408-2.627
							c-0.967-0.271-6.934-0.584-7.572-1.134c3.099,2.673,0.245-3.509-0.197-4.04c-1.217-1.461-2.695-2.161-4.337-3.015
							c-2.097-1.091-8.482-0.382-4.216,1.837c3.565,1.854,2.332,4.683,4.662,6.858c1.214,1.132,2.918,1.094,4.36,1.584
							c7.246,2.461,13.597,3.897,17.064,11.156c2.169,4.541,2.638,9.428,2.211,14.394
							C259.047,571.091,266.372,572.294,266.544,570.293L266.544,570.293z"/>
					</g>
					<g>
						<path d="M283.721,548.797c-9.2-6.988-20.472-8.907-31.556-5.749c-4.165,1.186,1.843,4.909,4.529,4.144
							c7.408-2.11,15.026-1.081,21.232,3.633c1.289,0.979,3.568,1.883,5.162,1.058C284.326,551.242,285.171,549.898,283.721,548.797
							L283.721,548.797z"/>
					</g>
					<g>
						<path d="M0.37,776.625c18.227,20.954,38.759,39.386,61.558,55.237c1.493,1.038,8.669,1.285,5.559-0.877
							c-22.458-15.614-42.586-33.819-60.531-54.449C5.715,775.11-1.367,774.629,0.37,776.625L0.37,776.625z"/>
					</g>
					<g>
						<path d="M-50.724,423.342c16.25,0.594,24.741,20.166,17.417,33.401c-1.451,2.622,6.172,4.655,7.35,2.527
							c10.432-18.851-6.347-39.18-26.12-39.904C-57.452,419.169-54.444,423.206-50.724,423.342L-50.724,423.342z"/>
					</g>
					<g>
						<path d="M-144.128,604.17c1.217,6.659-3.586,12.318-9.524,14.668c-5.288,2.093-15.466,3.961-20.45,0.831
							c-2.862-1.798-9.199,0.385-4.768,3.168c12.926,8.118,46.246,1.911,42.543-18.344
							C-136.872,601.513-144.765,600.689-144.128,604.17L-144.128,604.17z"/>
					</g>
					<g>
						<path d="M316.274,526.27c10.153-6.814,21.027-4.107,29.671,3.804c1.603,1.468,9.238,1.674,7.103-0.281
							c-12.225-11.19-29.665-15.668-44.143-5.95C307.334,524.897,314.184,527.673,316.274,526.27L316.274,526.27z"/>
					</g>
					<g>
						<path d="M295.741,493.623c12.295,0.046,25.041,14.792,22.25,26.853c-0.364,1.573,7.437,3.301,7.83,1.605
							c4.205-18.169-18.24-31.17-33.63-31.227C287.122,490.835,293.763,493.616,295.741,493.623L295.741,493.623z"/>
					</g>
					<g>
						<path d="M153.378,491.766c16.751-0.959,34.111-0.12,48.473,9.517c0.557,0.374,2.955,0.342,1.872-0.385
							c-15.212-10.207-33.606-11.303-51.389-10.285C150.731,490.706,152.573,491.812,153.378,491.766L153.378,491.766z"/>
					</g>
					<g>
						<path d="M160.262,516.898c15.141-2.015,30.047,0.377,43.59,7.511c0.795,0.419,2.869-0.03,1.44-0.783
							c-14.259-7.512-30.094-10.138-46.046-8.015C157.642,515.825,159.357,517.018,160.262,516.898L160.262,516.898z"/>
					</g>
					<g>
						<path d="M160.257,533.234c12.227-3.438,24.656-2.917,36.358,2.127c1.094,0.472,2.419-0.39,0.889-1.049
							c-12.409-5.349-25.822-5.943-38.79-2.297C157.381,532.389,159.491,533.449,160.257,533.234L160.257,533.234z"/>
					</g>
					<g>
						<path d="M133.897,543.845c-10.264,5.746-18.437,13.942-24.387,24.085c-0.474,0.807,1.891,1.459,2.283,0.79
							c5.89-10.041,13.898-18.155,24.085-23.857C136.803,544.344,134.562,543.473,133.897,543.845L133.897,543.845z"/>
					</g>
					<g>
						<path d="M29.635,602.459c6.35-19.715,19.76-33.075,35.987-45.172c0.933-0.695-1.318-1.553-1.971-1.066
							c-16.384,12.214-30.041,25.843-36.45,45.74C26.942,602.765,29.351,603.342,29.635,602.459L29.635,602.459z"/>
					</g>
					<g>
						<path d="M12.301,585.009c9.133-14.628,19.794-29.309,35.863-36.774c0.776-0.36-1.429-1.152-2.008-0.883
							c-16.19,7.52-26.941,22.184-36.152,36.937C9.62,584.904,11.965,585.547,12.301,585.009L12.301,585.009z"/>
					</g>
					<g>
						<path d="M-6.667,583.75c7.431-17.402,21.036-31.594,38.651-38.757c0.708-0.288-1.459-1.063-2.018-0.836
							c-17.798,7.237-31.556,21.506-39.066,39.094C-9.282,583.676-6.939,584.386-6.667,583.75L-6.667,583.75z"/>
					</g>
					<g>
						<path d="M56.373,611.254c4.73-11.476,9.742-23.05,20.099-30.563c1.042-0.756-1.162-1.763-1.944-1.195
							c-10.574,7.671-15.753,19.531-20.587,31.259C53.564,611.666,55.962,612.253,56.373,611.254L56.373,611.254z"/>
					</g>
					<g>
						<path d="M83.801,632.075c-2.887-14.594,1.19-29.409,10.495-40.922c0.796-0.985-1.519-1.86-2.249-0.956
							c-9.49,11.742-13.632,26.997-10.689,41.872C81.583,633.209,84.052,633.346,83.801,632.075L83.801,632.075z"/>
					</g>
					<g>
						<path d="M85.713,662.714c7.514,27.573,29.01,46.264,52.665,60.505c0.466,0.281,2.625,0.378,2.168,0.104
							c-23.581-14.198-44.969-32.84-52.451-60.3C87.95,662.492,85.594,662.278,85.713,662.714L85.713,662.714z"/>
					</g>
					<g>
						<path d="M193.19,749.262c34.843,13.426,72.932,15.3,109.158,6.578c1.58-0.38,0.216-1.945-0.938-1.667
							c-35.605,8.573-72.988,6.843-107.249-6.359C192.914,747.334,191.654,748.67,193.19,749.262L193.19,749.262z"/>
					</g>
					<g>
						<path d="M399.104,729.854c50.644-3.987,101.259,11.262,140.577,43.594c0.971,0.799,2.791-0.234,1.539-1.264
							c-39.766-32.701-91.196-48.189-142.416-44.156C397.192,728.156,397.702,729.964,399.104,729.854L399.104,729.854z"/>
					</g>
					<g>
						<path d="M54.379,676.417c3.241,8.475,7.887,16.135,14.064,22.796c0.541,0.584,2.969,0.586,2.232-0.208
							c-6.083-6.56-10.686-14.089-13.88-22.443C56.485,675.752,54.053,675.565,54.379,676.417L54.379,676.417z"/>
					</g>
					<g>
						<path d="M104.082,738.562c20.087,19.706,44.237,34.427,71.024,43.077c1.282,0.414,2.55-1.023,0.987-1.528
							c-26.417-8.53-50.227-22.977-70.041-42.414C105.256,736.915,102.998,737.497,104.082,738.562L104.082,738.562z"/>
					</g>
					<g>
						<path d="M224.195,790.943c19.738,1.733,39.516,1.427,59.201-0.817c1.611-0.184-0.029-1.496-0.996-1.386
							c-19.484,2.221-39.056,2.519-58.592,0.804C222.148,789.399,222.994,790.838,224.195,790.943L224.195,790.943z"/>
					</g>
					<g>
						<path d="M51.474,627.933c-1.274,9.451-0.079,18.85,3.965,27.522c0.337,0.723,2.727,0.872,2.407,0.186
							c-3.999-8.575-5.2-17.852-3.938-27.209C54.016,627.621,51.577,627.169,51.474,627.933L51.474,627.933z"/>
					</g>
					<g>
						<path d="M33.948,646.851c0.52,6.543,2.247,12.812,5.349,18.609c0.351,0.656,2.686,0.76,2.399,0.224
							c-3.054-5.709-4.802-11.883-5.315-18.334C36.318,646.55,33.905,646.305,33.948,646.851L33.948,646.851z"/>
					</g>
					<g>
						<path d="M-4.582,642.977c1.176,12.422,4.499,24.349,10.115,35.497c0.465,0.924,2.879,0.823,2.269-0.389
							c-5.551-11.018-8.787-22.792-9.949-35.059C-2.246,641.98-4.698,641.752-4.582,642.977L-4.582,642.977z"/>
					</g>
					<g>
						<path d="M16.663,383.023c12.454,5.595,29.629-5.753,31.958-18.673c2.573-14.277-5.776-29.289-19.657-33.3
							c-4.47-1.292-5.464,3.976-1.075,5.244c8.983,2.596,13.181,12.636,13.634,21.26c0.482,9.17-10.297,26.015-21.882,20.81
							C15.839,376.657,12.193,381.015,16.663,383.023L16.663,383.023z"/>
					</g>
					<g>
						<path d="M-0.768,477.853c4.541-18.226-5.784-34.717-24.284-38.162c-4.297-0.8-4.99,2.162-0.611,2.978
							c15.854,2.953,21.06,19.781,17.595,33.688C-8.571,478.376-1.305,480.009-0.768,477.853L-0.768,477.853z"/>
					</g>
					<g>
						<path d="M178.424,284.104c-14.89-9.107-31.998-15.379-49.54-11.025c-13.727,3.407-27.555,13.618-27.032,28.944
							c0.107,3.129,7.433,3.864,7.306,0.144c-0.474-13.868,13.632-22.647,25.787-24.81c14.037-2.498,27.185,3.028,38.93,10.211
							C176.837,289.381,182.586,286.649,178.424,284.104L178.424,284.104z"/>
					</g>
					<g>
						<path d="M106.434,300.475c-16.311-7.416-35.995-7.289-47.52,8.213c-2.136,2.874,4.854,5.324,6.772,2.744
							c9.4-12.644,24.481-12.711,37.84-6.638C107.211,306.471,110.909,302.51,106.434,300.475L106.434,300.475z"/>
					</g>
					<g>
						<path d="M208.688,305.335c0.5-18.651-19.508-28.577-35.14-19.697c-2.434,1.383,4.281,3.723,6.006,2.742
							c5.962-3.386,12.901-3.814,17.688,1.789c3.231,3.781,4.276,8.845,4.146,13.669
							C201.326,306.127,208.639,307.149,208.688,305.335L208.688,305.335z"/>
					</g>
					<g>
						<path d="M198.337,323.951c5.335,3.119,10.683,8.169,9.458,14.982c-0.685,3.811-5.303,6.04-4.74,10.078
							c0.494,3.544,4.829,6.011,7.983,6.829c9.626,2.497,23.622-0.39,28.327-9.88c5.93-11.96-1.715-28.854-11.757-36.006
							c-9.967-7.098-23.09-8.13-34.472-4.366c-1.986,0.657,4.388,2.991,6.069,2.435c14.251-4.712,27.707,2.348,32.614,16.254
							c3.37,9.551,3.26,22.438-7.299,27.285c-2.426,1.114-6.722,2.57-9.462,1.824c-2.914,0.875-3.709-0.424-2.383-3.897
							c-0.753-1.615-0.719-2.981,0.103-4.098c0.874-3.414,2.81-5.006,2.274-8.972c-0.855-6.327-6.105-10.018-11.224-13.011
							C202.475,322.618,195.28,322.164,198.337,323.951L198.337,323.951z"/>
					</g>
					<g>
						<path d="M195.701,322.672c-1.702,5.895-7.822,20.027-17.124,11.757c-1.048-0.931-7.409-2.325-6.499,0.695
							c2.416,8.024,0.353,24.074-10.909,24.664c-1.062,0.056-2.341,0.693-2.14,1.914c1.513,9.207,0.019,18.25-5.627,25.819
							c-1.812,2.429,5.21,4.667,6.821,2.507c6.077-8.148,7.692-18.031,6.063-27.946c-0.713,0.638-1.427,1.276-2.14,1.914
							c13.677-0.717,18.671-16.934,15.19-28.493c-2.166,0.232-4.333,0.463-6.499,0.695c12.657,11.253,26.11,2.014,30.165-12.03
							C203.757,321.55,196.503,319.895,195.701,322.672L195.701,322.672z"/>
					</g>
					<g>
						<path d="M210.406,346.87c-8.224-0.358-14.485,6.349-16.958,13.691c-3.455,10.259-0.115,20.511,4.334,29.861
							c0.436,0.917,2.602,0.735,2.055-0.414c-3.539-7.439-6.455-15.216-5.419-23.597c1.024-8.281,6.714-18.305,16.256-17.89
							C212.143,348.585,211.648,346.924,210.406,346.87L210.406,346.87z"/>
					</g>
					<g>
						<path d="M179.326,359.476c-3.17,8.325-3.373,17.278-0.023,25.575c0.287,0.711,2.683,0.892,2.404,0.2
							c-3.319-8.221-3.082-17.044,0.052-25.276C182,359.342,179.619,358.706,179.326,359.476L179.326,359.476z"/>
					</g>
					<g>
						<path d="M188.127,348.192c3.938-8.147,11.136-14.202,20.177-15.693c1.277-0.211-0.906-1.199-1.569-1.09
							c-9.416,1.552-16.927,7.773-21.041,16.284C185.426,348.248,187.762,348.948,188.127,348.192L188.127,348.192z"/>
					</g>
					<g>
						<path d="M185.742,364.376c-2.629,7.163-2.16,14.982,1.927,21.499c0.407,0.65,2.82,0.78,2.224-0.171
							c-3.949-6.297-4.245-13.945-1.718-20.829C188.445,364.142,186.052,363.532,185.742,364.376L185.742,364.376z"/>
					</g>
					<g>
						<path d="M170.409,367.234c-2.561,6.358-2.39,13.386,0.991,19.408c0.448,0.798,2.87,0.808,2.25-0.297
							c-3.245-5.78-3.254-12.539-0.808-18.612C173.193,366.862,170.798,366.269,170.409,367.234L170.409,367.234z"/>
					</g>
					<g>
						<path d="M198.697,344.569c2.603-3.043,6.105-5.049,10.091-5.545c1.606-0.2,0.325-1.958-0.91-1.805
							c-4.549,0.567-8.476,2.936-11.43,6.391C195.629,344.569,197.941,345.454,198.697,344.569L198.697,344.569z"/>
					</g>
					<g>
						<path d="M353.832,397.064c-3.63-12.566-13.232-21.578-26.218-23.864c-11.273-1.984-26.112,2.343-24.717,16.34
							c2.139,0.123,4.278,0.245,6.417,0.368c-8.27-5.427-17.872-11.074-28.229-10.005c-4.922,0.508-9.461,2.616-12.924,6.171
							c-2.055,2.109-2.67,4.144-4.149,6.522c-2.215,3.562,0.114,4.132-4.021,1.286c-5.682-3.91-9.77-6.609-17.257-5.019
							c-11.159,2.37-18.344,13.277-18.111,24.247c0.046,2.17,7.332,2.996,7.3,1.497c-0.167-7.851,4.815-21.232,14.173-22.412
							c6.454-0.814,10.375,8.037,16.591,9.373c2.609,0.561,6.219,0.758,8.074-1.597c0.593-0.753-0.124-3.385,0.261-4.47
							c0.943-2.657,2.053-5.197,4.036-7.299c7.482-7.931,20.735-2.772,28.72,2.468c0.648,0.425,6.587,2.071,6.417,0.368
							c-1.209-12.126,11.177-19.535,23.987-12.555c6.64,3.618,10.461,10.875,12.468,17.823
							C347.194,398.176,354.364,398.904,353.832,397.064L353.832,397.064z"/>
					</g>
					<g>
						<path d="M389.45,437.195c9.408-12.766,2.327-33.971-13.033-38.532c-5.502-1.634-10.982,0.624-15.846-0.486
							c-5.233-1.194-8.307-3.635-14.197-3.274c-3.453,0.212,3.314,2.708,4.843,2.614c3.311-0.203,5.809,3.265,8.816,4.246
							c2.325,0.758,3.928,0.317,6.313,0.326c6.249,0.025-1.915-3.148,8.834,1.587c5.487,2.417,6.845,3.061,8.894,8.103
							c3.187,7.845,3.666,16.319-1.544,23.388C381.565,436.477,388.409,438.608,389.45,437.195L389.45,437.195z"/>
					</g>
					<g>
						<path d="M383.122,439.432c3.648,1.811,2.551,8.579,1.721,11.516c-1.165,4.12-3.515,8.327-7.384,10.486
							c-11.292,6.299-13.888-12.323-6.914-12.594c4.869-0.19,3.354-5.743-0.878-5.578c-6.931,0.27-11.326,6.42-10.43,13.189
							c0.93,7.029,7.032,11.821,13.956,11.939c15.302,0.261,29.174-25.676,12.933-33.738
							C382.333,432.768,378.757,437.266,383.122,439.432L383.122,439.432z"/>
					</g>
					<g>
						<path d="M374.253,446.145c-0.564-11.768-7.3-21.934-18.39-26.32c-9.125-3.609-21.509-3.525-26.741,6.012
							c-0.763,1.392,6.123,3.641,7.3,1.497c5.393-9.829,17.881-6.557,24.126,0.54c4.188,4.76,6.105,10.515,6.406,16.775
							C367.068,447.029,374.335,447.851,374.253,446.145L374.253,446.145z"/>
					</g>
					<g>
						<path d="M322.018,430.654c6.348-4.36,14.863,0.281,17.411,6.97c0.892,2.34,1.074,4.976,0.525,7.418
							c-0.537,2.389-4.301,9.931-8.173,6.952c-1.919-1.477-9.02-0.921-5.712,1.624c10.623,8.173,24.933-1.924,20.879-14.821
							c-3.625-11.533-20.7-18.316-30.841-11.349C313.253,429.408,319.995,432.044,322.018,430.654L322.018,430.654z"/>
					</g>
					<g>
						<path d="M329.828,455.649c-0.574-0.191,0.388,0.413,0.422,0.443c0.377,0.335,0.685,0.705,0.972,1.119
							c0.521,0.753,0.922,1.598,1.185,2.474c0.603,2.009,0.387,4.125-0.395,6.049c-0.463,1.141,6.584,3.26,7.3,1.497
							c1.057-2.604,0.955-5.555-0.308-8.08c-1.396-2.79-3.95-4.232-6.809-5.185c-0.97-0.323-3.806-1.074-4.644-0.167
							C326.701,454.72,329.417,455.512,329.828,455.649L329.828,455.649z"/>
					</g>
					<g>
						<path d="M332.282,465.079c-0.483,1.1-1.067,2.321-2.162,2.936c-0.422,0.237-0.488,0.162-0.643,0.087
							c-0.597-0.289-0.98-0.439-1.459-1.151c-0.527-0.783-0.668-1.644-0.657-2.601c0.037-3.269-7.275-3.93-7.319-0.078
							c-0.048,4.233,3.696,7.601,7.499,8.715c4.738,1.387,9.485-0.513,11.499-5.099
							C340.585,464.372,333.608,462.061,332.282,465.079L332.282,465.079z"/>
					</g>
					<g>
						<path d="M307.836,464.973c-3.073-0.942-2.624-5.777-3.026-8.068c-0.499-2.848-1.335-5.405-2.747-7.938
							c-1.881-3.374-4.474-6.432-7.848-8.379c-6.031-3.479-13.933-3.267-18.729,2.076c-1.637,1.824,5.256,4.119,6.856,2.337
							c1.827-2.036,7.771-1.443,9.983-0.065c1.703,1.061,3.154,4.574,3.905,6.372c1.231,2.949,1.169,5.939,1.819,9.001
							c0.876,4.127,3.22,6.291,7.181,7.505C308.436,468.797,312.677,466.457,307.836,464.973L307.836,464.973z"/>
					</g>
					<g>
						<path d="M275.287,442.785c-0.746,2.136-1.988,3.935-3.785,5.323c-0.771,0.595-1.626,1.122-2.529,1.492
							c-0.52,0.213-1.065,0.325-1.601,0.48c-0.332,0.096-1.173-0.051-0.519,0.146c-0.885-0.267-3.946-1.117-4.647-0.156
							c-0.726,0.996,1.712,1.7,2.273,1.87c7.205,2.172,15.426,0.015,18.107-7.658C283.033,443.003,275.897,441.039,275.287,442.785
							L275.287,442.785z"/>
					</g>
					<g>
						<path d="M263.279,449.382c-0.445,0.108-0.89,0.217-1.335,0.325c1.408,0.115,2.816,0.229,4.225,0.344
							c-3.34-0.905-5.735-3.2-9.433-3.654c-3.31-0.407-6.762-0.093-9.71,1.597c-9.592,5.497-6.603,17.774-3.45,26.167
							c0.653,1.738,7.658,2.196,7.158,0.864c-2.742-7.301-6.201-19.485,2.514-24.551c4.975-2.891,10.574,2.65,16.11,1.302
							C271.208,451.324,264.977,448.968,263.279,449.382L263.279,449.382z"/>
					</g>
					<g>
						<path d="M362.599,460.685c-7.279,7.252-12.543,16.207-15.126,26.172c-2.103,8.113-3.392,18.681,1.47,26.066
							c0.509,0.774,2.943,0.74,2.253-0.309c-5.027-7.636-3.223-18.872-0.764-27.146c2.715-9.136,7.705-17.208,14.434-23.913
							C365.594,460.83,363.29,459.997,362.599,460.685L362.599,460.685z"/>
					</g>
					<g>
						<path d="M365.901,444.155c-18.152,7.967-29.13,26.137-28.357,45.88c0.028,0.721,2.452,0.976,2.433,0.499
							c-0.761-19.454,9.987-37.644,27.938-45.523C368.654,444.686,366.466,443.906,365.901,444.155L365.901,444.155z"/>
					</g>
					<g>
						<path d="M361.373,428.992c-7.341,1.006-13.315,5.647-16.751,12.127c-0.259,0.489,2.048,1.225,2.433,0.499
							c3.245-6.12,8.95-10.621,15.895-11.573C364.206,429.874,362.009,428.905,361.373,428.992L361.373,428.992z"/>
					</g>
					<g>
						<path d="M350.671,420.934c-5.522,1.903-9.91,5.804-12.699,10.91c-0.588,1.077,1.75,1.843,2.258,0.914
							c2.645-4.844,6.678-8.512,11.926-10.321C353.567,421.951,351.664,420.592,350.671,420.934L350.671,420.934z"/>
					</g>
					<g>
						<path d="M351.554,446.332c4.57-4.679,10.02-8.13,16.3-10.019c0.713-0.215-1.421-1.034-2.014-0.856
							c-6.372,1.916-11.943,5.416-16.586,10.169C348.859,446.03,351.078,446.819,351.554,446.332L351.554,446.332z"/>
					</g>
					<g>
						<path d="M347.669,430.798c3.424-2.907,7.322-5.112,11.642-6.374c1.259-0.368-0.937-1.243-1.576-1.057
							c-4.591,1.341-8.713,3.591-12.358,6.685C344.89,430.466,347.087,431.292,347.669,430.798L347.669,430.798z"/>
					</g>
					<g>
						<path d="M292.513,444.311c-5.333,4.762-8.272,11.364-8.109,18.529c0.017,0.743,2.445,1.024,2.433,0.499
							c-0.162-7.102,2.665-13.57,7.973-18.31C295.233,444.652,293.048,443.833,292.513,444.311L292.513,444.311z"/>
					</g>
					<g>
						<path d="M280.775,442.217c-2.973,3.129-5.232,6.775-6.531,10.905c-0.995,3.164-2.243,8.559-0.698,11.75
							c0.337,0.695,1.277,0.879,1.973,0.71c0.106-0.026,0.213-0.052,0.319-0.078c0.186-0.045,0.408-0.196,0.453-0.396
							c0.021-0.096,0.042-0.192,0.064-0.289c0.2-0.905-2.23-1.419-2.433-0.499c0.023-0.01,0.046-0.02,0.069-0.029
							c0.658,0.236,1.316,0.473,1.974,0.71c-1.499-3.095-0.283-8.213,0.712-11.379c1.269-4.036,3.476-7.523,6.371-10.57
							C283.704,442.362,281.399,441.561,280.775,442.217L280.775,442.217z"/>
					</g>
					<g>
						<path d="M262.989,449.975c-6.112,4.95-9.081,12.934-7.222,20.639c0.252,1.044,2.719,1.216,2.436,0.044
							c-1.749-7.246,0.947-14.75,6.717-19.422C265.974,450.382,263.806,449.314,262.989,449.975L262.989,449.975z"/>
					</g>
					<g>
						<path d="M266.89,462.996c-0.047-4.029,1.345-7.76,3.854-10.893c0.731-0.912-1.596-1.736-2.259-0.909
							c-2.716,3.391-4.081,7.409-4.03,11.749C264.467,463.968,266.904,464.228,266.89,462.996L266.89,462.996z"/>
					</g>
					<g>
						<path d="M252.609,460.3c1.074-4.896,3.855-8.948,8.139-11.581c1.061-0.652-1.146-1.672-1.948-1.179
							c-4.493,2.762-7.496,7.122-8.624,12.261C249.956,460.804,252.387,461.315,252.609,460.3L252.609,460.3z"/>
					</g>
					<g>
						<path d="M281.207,454.806c2.117-5.283,4.951-12.099,11.384-12.999c1.608-0.225-0.002-1.55-0.99-1.412
							c-7.22,1.01-10.389,7.83-12.827,13.912C278.449,455.117,280.839,455.723,281.207,454.806L281.207,454.806z"/>
					</g>
					<g>
						<path d="M292.981,462.101c1.079-4.449,4.094-8.085,8.445-9.633c0.833-0.296-1.352-1.171-1.996-0.942
							c-4.53,1.612-7.756,5.435-8.882,10.075C290.38,462.292,292.804,462.831,292.981,462.101L292.981,462.101z"/>
					</g>
					<g>
						<path d="M348.783,467.612c-8.482,11.086-11.132,25.983-5.617,38.984c0.311,0.734,2.713,0.905,2.407,0.184
							c-5.433-12.808-2.863-27.465,5.496-38.389C351.588,467.712,349.259,466.991,348.783,467.612L348.783,467.612z"/>
					</g>
					<g>
						<path d="M-29.855,535.067c-20.695,24.288-27.789,56.922-23.586,88.187c4.487,33.373,21.609,63.068,40.16,90.516
							c1.27,1.878,8.511,2.248,6.667-0.48c-34.609-51.207-62.394-121.857-16.393-175.845
							C-21.319,535.462-28.259,533.194-29.855,535.067L-29.855,535.067z"/>
					</g>
					<g>
						<path d="M-9.099,522.941c3.374-1.481,6.749-2.962,10.123-4.442c1.529-0.671,1.879-2.328,0.727-3.547
							c-1.212-1.283-3.537-1.771-5.162-1.059c-3.374,1.481-6.749,2.962-10.123,4.442c-1.529,0.671-1.879,2.328-0.727,3.547
							C-13.048,523.165-10.724,523.654-9.099,522.941L-9.099,522.941z"/>
					</g>
					<g>
						<path d="M23.911,512.067c15.758-1.272,31.112,0.643,46.015,5.945c3.618,1.287,7.516-2.289,2.833-3.955
							c-16.791-5.974-33.982-8.076-51.734-6.644C16.185,507.804,20.71,512.325,23.911,512.067L23.911,512.067z"/>
					</g>
					<g>
						<path d="M112.529,452.806c14.199-12.471,31.919-17.37,50.635-15.27c18.385,2.062,40.095,8.879,53.212,22.396
							c1.885,1.942,8.797,1.262,5.761-1.866c-14.643-15.09-38.655-22.511-59.097-24.876c-20.441-2.365-40.762,2.514-56.387,16.237
							C103.845,451.892,110.539,454.552,112.529,452.806L112.529,452.806z"/>
					</g>
					<g>
						<path d="M321.025,576.41c10.409-6.669,23.079-8.086,33.864-1.423c2.77,1.711,8.631-0.558,4.48-3.123
							c-13.761-8.502-30.706-7.647-44.181,0.986C312.005,574.889,318.621,577.95,321.025,576.41L321.025,576.41z"/>
					</g>
					<g>
						<path d="M276.533,418.461c3.579-7.705,3.026-17.473-5.858-21.095c-1.405-0.573-3.92-0.722-4.841,0.793
							c-0.934,1.535,0.598,2.998,1.93,3.541c5.279,2.152,3.841,10.044,1.997,14.013
							C268.194,419.087,275.203,421.323,276.533,418.461L276.533,418.461z"/>
					</g>
					<g>
						<path d="M326.14,405.099c-3.958-8.404-11.039-13.977-19.878-16.584c-2.833-0.836-7.337,0.439-2.41,1.892
							c7.024,2.072,12.061,7.386,15.119,13.88C319.825,406.099,326.761,406.417,326.14,405.099L326.14,405.099z"/>
					</g>
					<g>
						<path d="M342.432,405.101c3.045,0.3,6.61,0.395,9.077-1.753c2.76-2.403,2.363-5.417,0.957-8.446
							c-0.533-1.148-3.276-1.472-4.35-1.604c-0.456-0.056-3.281-0.364-2.796,0.68c0.916,1.974,1.565,3.948,0.426,5.982
							c-0.895,1.597-2.96,3.046-4.868,2.857c-0.599-0.059-3.057-0.458-2.796,0.68C338.317,404.518,341.724,405.031,342.432,405.101
							L342.432,405.101z"/>
					</g>
					<g>
						<path d="M77.979,410.264c21.506-3.594,36.861,10.446,41.69,30.118c0.553,2.252,7.845,3.082,7.223,0.549
							c-6.15-25.049-28.65-38.272-53.587-34.106C69.402,407.478,75.863,410.617,77.979,410.264L77.979,410.264z"/>
					</g>
					<g>
						<path d="M153.636,398.379c4.143-13.74,23.46-11.91,33.995-9.236c11.093,2.816,17.408,7.928,20.278,19.172
							c0.497,1.946,7.714,2.766,7.189,0.71c-3.632-14.23-15.726-22.235-29.723-24.471c-12.434-1.986-34.601-2.391-39.039,12.328
							C145.802,398.655,153.017,400.434,153.636,398.379L153.636,398.379z"/>
					</g>
					<g>
						<path d="M234.843,425.901c5.123-8.572-9.313-16.682-15.978-18.073c-9.184-1.917-17.975,1.464-22.791,9.652
							c-0.623,1.06,6.143,3.464,7.3,1.497c1.188-2.02,2.545-3.773,4.367-5.228c4.046-3.232,5.709-3.066,10.722-1.849
							c4.586,1.114,6.899,1.668,9.064,6.158c1.185,2.458,1.368,4.085,0.016,6.346C226.921,425.447,233.669,427.866,234.843,425.901
							L234.843,425.901z"/>
					</g>
					<g>
						<path d="M-13.73,364.712c-27.872,13.265-23.131,55.511-11.361,78.381c1.304,2.534,8.551,2.497,6.767-0.97
							c-10.371-20.151-16.076-61.197,9.106-73.182C-5.196,367.026-11.059,363.441-13.73,364.712L-13.73,364.712z"/>
					</g>
					<g>
						<path d="M172.948,293.703c-20.043-11.832-54.393-7.018-56.803,20.829c-0.249,2.878,7.068,4.176,7.3,1.497
							c1.922-22.207,27.511-30.031,45.113-19.64C171.101,297.89,177.141,296.178,172.948,293.703L172.948,293.703z"/>
					</g>
					<g>
						<path d="M171.468,313.262c-8.147,8.285-2.673,19.355,5.39,25.079c1.503,1.067,8.673,1.3,5.565-0.907
							c-7.07-5.02-10.933-15.008-4.067-21.99C179.692,314.085,172.978,311.727,171.468,313.262L171.468,313.262z"/>
					</g>
					<g>
						<path d="M-16.753,474.609c-5.015-23.505-26.723-28.963-47.318-22.889c-4.257,1.255,1.471,5.386,4.455,4.507
							c8.174-2.411,16.921-4.027,24.525,0.912c6.146,3.992,9.542,10.332,11.034,17.324C-23.393,477.579-16,478.141-16.753,474.609
							L-16.753,474.609z"/>
					</g>
					<g>
						<path d="M110.009,473.191c7.424-8.19,7.348-21.18-2.969-26.971c-7.587-4.259-20.585-5.466-27.048,1.294
							c-1.494,1.563,5.305,3.896,6.872,2.256c6.059-6.337,17.766-3.581,20.51,4.746c1.978,6-0.146,11.905-4.238,16.419
							C101.655,472.569,108.496,474.859,110.009,473.191L110.009,473.191z"/>
					</g>
					<g>
						<path d="M81.445,424.853c3.884-19.067-14.966-30.987-32.027-28.942c-4.814,0.577,0.41,4.095,3.065,3.777
							c14.065-1.686,24.439,10.037,21.662,23.668C73.648,425.794,80.944,427.309,81.445,424.853L81.445,424.853z"/>
					</g>
					<g>
						<path d="M-5.375,383.155c13.263-9.155,32.08,5.093,32.486,19.484c0.078,2.754,7.372,3.718,7.275,0.29
							c-0.572-20.309-28.773-34.881-45.615-23.256C-14.31,381.8-7.657,384.73-5.375,383.155L-5.375,383.155z"/>
					</g>
					<g>
						<path d="M-62.4,722.267c-4.826-6.438-14.56-9.319-22.033-5.8c-11.312,5.326-10.057,19.857-7.705,30.039
							c0.391,1.694,7.548,2.515,7.162,0.845c-1.389-6.014-2.323-13.046-0.63-19.119c1.864-6.682,10.177-14.635,16.044-6.809
							C-68.311,723.091-61.843,723.01-62.4,722.267L-62.4,722.267z"/>
					</g>
					<g>
						<path d="M-100.689,624.295c-10.833,11.264-7.356,28.056,5.128,36.468c9.567,6.446,28.382,11.29,37.677,2.131
							c2.858-2.816-3.692-5.748-5.819-3.653c-8.113,7.994-25.081,1.866-31.45-5.607c-6.973-8.181-6.019-19.096,1.248-26.653
							C-91.622,624.607-98.557,622.078-100.689,624.295L-100.689,624.295z"/>
					</g>
					<g>
						<path d="M-64.817,660.353c-7.571,7.571-14.674,23.166-1.793,29.462c1.25,0.611,3.778,1.576,5.162,1.058
							c0.973-0.364,1.86-0.639,0.289-1.407c-11.484-5.613-2.62-21.247,3.274-27.14C-57.063,661.502-63.511,659.047-64.817,660.353
							L-64.817,660.353z"/>
					</g>
					<g>
						<path d="M-24.883,745.784c-7.166,5.074-11.385,13.287-11.778,22.068c-0.162,3.618,0.145,7.696,1.643,11.025
							c2.106,4.679,6.211,6.143,9.912,9.423c1.49,1.32,8.577,1.517,6.614-0.223c-3.147-2.79-7.386-4.626-9.323-8.555
							c-1.773-3.597-1.834-8.39-1.365-12.304c0.934-7.791,4.76-14.652,11.173-19.192C-16.578,747.013-22.991,744.444-24.883,745.784
							L-24.883,745.784z"/>
					</g>
					<g>
						<path d="M-102.852,564.382c-31.55,18.832-8.209,73.215,26.997,64.8c3.807-0.91-2.78-3.659-4.724-3.195
							c-4.343,1.038-16.223-3.438-19.52-6.654c-2.423-2.363-4.274-5.729-5.829-8.704c-2.599-4.973-4.348-10.709-4.608-16.322
							c-0.501-10.835,4.187-21.445,13.674-27.108C-94.35,565.701-101.091,563.331-102.852,564.382L-102.852,564.382z"/>
					</g>
					<g>
						<path d="M-124.817,531.033c-8.845,22.906,17.994,39.78,37.807,36.992c4.807-0.676-0.324-4.251-3.046-3.868
							c-17.049,2.398-34.168-14.26-27.461-31.628C-116.675,530.351-123.836,528.493-124.817,531.033L-124.817,531.033z"/>
					</g>
					<g>
						<path d="M506.704,804.898c5.451,4.401,11.375,8.026,17.913,10.586c4.473,1.751,9.341,3.264,13.674,0.446
							c3.062-1.992-3.611-4.884-5.868-3.417c-2.494,1.622-8.449-2.1-10.605-3.246c-3.331-1.771-6.41-3.919-9.342-6.286
							C510.388,801.295,503.358,802.197,506.704,804.898L506.704,804.898z"/>
					</g>
					<g>
						<path d="M242.762,512.453c6.59-8.186,15.674-13.967,26.266-15.004c4.83-0.473-0.299-4.186-3.036-3.918
							c-11.989,1.175-22.538,7.149-30.07,16.505C234.197,512.18,241.178,514.421,242.762,512.453L242.762,512.453z"/>
					</g>
					<g>
						<path d="M-41.264,374.71c-10.446,13.867-12.917,33.423-3.979,48.679c0.338,0.576,2.57,0.603,2.386,0.288
							c-8.849-15.105-6.447-34.558,3.9-48.293C-38.638,374.961-40.911,374.242-41.264,374.71L-41.264,374.71z"/>
					</g>
					<g>
						<path d="M-17.104,359.25c-13.039,5.505-20.217,20.051-22.788,33.307c-2.658,13.706-0.56,28.087,6.783,40.032
							c0.433,0.704,2.854,0.784,2.235-0.223c-6.889-11.206-9.01-24.609-6.902-37.533c2.166-13.282,9.084-28.775,22.204-34.315
							C-14.255,359.962-16.317,358.917-17.104,359.25L-17.104,359.25z"/>
					</g>
					<g>
						<path d="M-68.43,442.728c11.756-6.581,25.895-7.109,37.204,0.828c0.463,0.325,2.69,0.424,2.176,0.063
							c-12.434-8.727-28.552-8.919-41.687-1.566C-70.97,442.184-69.046,443.073-68.43,442.728L-68.43,442.728z"/>
					</g>
					<g>
						<path d="M-72.541,431.885c13.683-6.358,27.623-2.288,40.897,3.062c1.177,0.474,2.468-0.638,0.932-1.257
							c-13.993-5.64-28.929-9.873-43.34-3.177C-75.387,431.133-73.403,432.286-72.541,431.885L-72.541,431.885z"/>
					</g>
					<g>
						<path d="M-146.933,479.245c-21.396,15.268-18.342,46.383,1.871,60.952c0.511,0.369,2.9,0.428,1.859-0.323
							c-19.907-14.348-22.262-45.033-1.436-59.894C-144.192,479.661-146.317,478.805-146.933,479.245L-146.933,479.245z"/>
					</g>
					<g>
						<path d="M-146.671,490.187c-7.458,19.996-0.981,40.197,11.533,56.563c0.565,0.739,3.007,0.663,2.255-0.32
							c-12.382-16.194-18.739-35.95-11.355-55.744C-143.895,489.766-146.299,489.19-146.671,490.187L-146.671,490.187z"/>
					</g>
					<g>
						<path d="M-11.238,769.802c-0.661,12.527,6.615,22.425,16.622,29.222c13.779,9.359,29.713,16.228,44.441,23.976
							c0.986,0.519,2.942-0.367,1.509-1.12C38.98,815.381,26.5,809.073,14.27,802.343C1.909,795.54-9.614,785.659-8.804,770.301
							C-8.746,769.188-11.182,768.747-11.238,769.802L-11.238,769.802z"/>
					</g>
					<g>
						<path d="M-12.259,790.216c2.69,31.064,41.24,27.649,62.75,34.359c1.077,0.336,2.482-0.466,0.873-0.968
							c-21.263-6.633-58.597-2.984-61.214-33.213C-9.915,789.655-12.341,789.277-12.259,790.216L-12.259,790.216z"/>
					</g>
					<g>
						<path d="M317.843,851.676c17.66-8.216,34.931-17.24,51.718-27.122c16.582-9.761,32.296-22.235,51.062-27.478
							c17.762-4.962,37.398-4.638,55.105,0.419c9.896,2.826,19.333,7.41,27.267,14.014c6.809,5.667,12.067,12.452,20.832,15.104
							c1.487,0.45,1.819-1.33,0.363-1.771c-10.446-3.161-17.372-13.766-26.433-19.565c-7.278-4.658-15.364-7.936-23.711-10.108
							c-16.952-4.412-35.474-4.717-52.469-0.373c-18.802,4.807-34.257,16.71-50.674,26.49
							c-17.67,10.526-35.877,20.109-54.524,28.784C314.987,850.719,316.789,852.166,317.843,851.676L317.843,851.676z"/>
					</g>
					<g>
						<path d="M497.397,826.794c-10.353-15.21-26.501-24.608-44.785-26.323c-1.677-0.157-0.659,1.042,0.439,1.146
							c17.374,1.63,32.369,10.928,42.136,25.277C495.576,827.465,497.972,827.64,497.397,826.794L497.397,826.794z"/>
					</g>
					<g>
						<path d="M486.613,827.792c-11.442-11.811-23.892-23.697-41.28-24.186c-1.665-0.047-0.785,1.279,0.405,1.312
							c16.328,0.458,27.978,12.045,38.648,23.06C484.922,828.532,487.342,828.544,486.613,827.792L486.613,827.792z"/>
					</g>
					<g>
						<path d="M477.933,829.137c-9.55-12.091-23.615-24.45-39.461-26.137c-1.648-0.175-0.883,1.399,0.36,1.531
							c14.497,1.543,28.076,13.798,36.85,24.907C476.244,830.15,478.686,830.09,477.933,829.137L477.933,829.137z"/>
					</g>
					<g>
						<path d="M301.725,842.432c16.022-3.148,29.683-12.088,43.055-21.016c14.805-9.884,29.923-19.19,46.356-26.159
							c34.297-14.543,75.471-18.958,107.673,3.145c0.895,0.615,2.831-0.103,1.49-1.024c-29.413-20.189-67.14-19.185-99.706-7.773
							c-16.941,5.937-32.897,14.469-47.969,24.158c-16.391,10.536-32.294,23.295-51.867,27.141
							C299.163,841.218,300.658,842.642,301.725,842.432L301.725,842.432z"/>
					</g>
					<g>
						<path d="M101.385,307.53c-11.349-4.25-23.475-3.019-34.062,2.744c-0.882,0.48,1.358,1.319,1.99,0.975
							c9.74-5.302,20.695-6.751,31.212-2.812C101.574,308.83,102.963,308.121,101.385,307.53L101.385,307.53z"/>
					</g>
					<g>
						<path d="M102.862,311.819c-8.941-2.7-18.008-2.709-27.008-0.247c-1.387,0.379,0.622,1.617,1.511,1.374
							c8.148-2.229,16.455-2.316,24.564,0.133C103.116,313.438,104.453,312.3,102.862,311.819L102.862,311.819z"/>
					</g>
					<g>
						<path d="M-124.151,590.363c0.76-4.893,2.491-9.269,4.917-13.563c2.588-4.581,5.973-11.09,11.594-12.33
							c1.237-0.273-0.988-1.131-1.588-0.999c-9.684,2.136-16.015,17.762-17.356,26.393C-126.689,590.539-124.25,591-124.151,590.363
							L-124.151,590.363z"/>
					</g>
					<g>
						<path d="M-120.953,568.699c1.638-3.742,4.841-6.588,8.972-7.097c1.609-0.198,0.26-1.871-0.926-1.725
							c-4.607,0.568-8.455,3.674-10.299,7.888C-123.718,568.934-121.392,569.702-120.953,568.699L-120.953,568.699z"/>
					</g>
					<g>
						<path d="M-113.075,629.566c-8.963,11.036-3.274,25.557,6.2,34.209c9.364,8.551,22.17,11.786,34.548,9.673
							c1.603-0.274,0.092-1.701-0.968-1.52c-12.024,2.053-24.288-1.328-32.962-10.101c-8.262-8.356-12.683-21.377-4.552-31.39
							C-110.128,629.599-112.458,628.806-113.075,629.566L-113.075,629.566z"/>
					</g>
					<g>
						<path d="M-119.763,665.418c12.249,12.927,29.72,18.19,47.148,15.045c1.336-0.241-0.768-1.372-1.54-1.233
							c-16.072,2.901-32.12-2.128-43.378-14.009C-118.072,664.652-120.495,664.645-119.763,665.418L-119.763,665.418z"/>
					</g>
					<g>
						<path d="M-107.35,683.57c4.268,4.818,10.34,5.498,16.482,5.594c4.353,0.068,18.93,1.291,20.706-3.944
							c0.132-0.389-2.249-1.041-2.433-0.499c-1.169,3.446-9.782,3.407-12.744,3.542c-6.268,0.285-14.97,0.869-19.628-4.39
							C-105.424,683.358-107.465,683.441-107.35,683.57L-107.35,683.57z"/>
					</g>
					<g>
						<path d="M-124.98,603.871c-5.453,13.221,7.018,28.105,20.593,28.617c1.638,0.062,1.041-1.704-0.314-1.755
							c-12.611-0.475-22.639-14.741-17.846-26.362C-122.128,603.353-124.534,602.789-124.98,603.871L-124.98,603.871z"/>
					</g>
					<g>
						<path d="M-133.717,620.821c2.122,6.977,7.359,12.098,14.503,13.724c1.499,0.341,1.842-1.347,0.346-1.687
							c-6.183-1.407-10.59-6.019-12.411-12.004C-131.597,619.805-134.068,619.665-133.717,620.821L-133.717,620.821z"/>
					</g>
					<g>
						<path d="M-138.45,634.076c2.888,5.69,8.071,9.051,14.322,9.916c1.684,0.233,0.528-0.821-0.477-0.96
							c-5.185-0.717-9.141-4.149-11.452-8.703C-136.373,633.706-138.689,633.606-138.45,634.076L-138.45,634.076z"/>
					</g>
					<g>
						<path d="M-151.946,629.576c-1.259,7.599,1.602,15.293,8.168,19.522c0.833,0.537,2.827-0.011,1.462-0.89
							c-6.019-3.877-8.33-11.294-7.197-18.133C-149.359,629.146-151.795,628.665-151.946,629.576L-151.946,629.576z"/>
					</g>
					<g>
						<path d="M-131.803,654.824c5.141,4.303,12.177,4.79,18.125,1.91c1.386-0.671-0.403-2.129-1.461-1.616
							c-5.096,2.468-10.724,2.094-15.119-1.585C-131.237,652.714-133.046,653.784-131.803,654.824L-131.803,654.824z"/>
					</g>
					<g>
						<path d="M-167.026,637.682c-0.57,7.021,0.262,15.417,6.804,19.496c0.974,0.607,2.893-0.275,1.513-1.136
							c-5.857-3.652-6.388-11.654-5.883-17.862C-164.501,637.061-166.938,636.606-167.026,637.682L-167.026,637.682z"/>
					</g>
					<g>
						<path d="M-144.312,670.683c9.48,6.003,21.007,5.322,30.368-0.565c1.141-0.717-1.009-1.871-1.924-1.296
							c-8.287,5.212-18.484,5.971-26.913,0.633C-143.801,668.808-145.685,669.813-144.312,670.683L-144.312,670.683z"/>
					</g>
					<g>
						<path d="M-153.702,653.862c5.453,7.305,13.154,11.609,22.166,12.727c1.663,0.206,0.734-1.152-0.409-1.294
							c-8.048-0.998-14.718-5.162-19.532-11.61C-151.939,653.065-154.359,652.981-153.702,653.862L-153.702,653.862z"/>
					</g>
				</g>
			</g>
		</g>
	</g>
</g>
</svg>
