<svg xmlns="http://www.w3.org/2000/svg" version="1.1" viewBox="-5.0 -10.0 110.0 135.0" style="fill: #f5c193;">
 <path d="m37.023 62.773v-0.023438c0.32422-0.625 0.55078-1.2734 0.64844-1.9492 0.023437-0.050781 0.023437-0.10156 0.023437-0.17578 0.14844-1.2734-0.17578-2.6016-0.89844-3.6484-0.69922-1.0508-1.75-1.8242-3.0508-2.0234h-0.125c-2.0508-0.25-3.25 0.42578-3.8516 1.375-0.30078 0.47656-0.42578 1.0508-0.42578 1.6016 0.023438 0.55078 0.17578 1.1016 0.42578 1.5508 0.44922 0.72656 1.2266 1.1992 2.1992 1.0234 0.30078-0.050781 0.55078-0.22656 0.72656-0.44922 0.14844-0.19922 0.25-0.42578 0.30078-0.67578 0.050781-0.25 0.023437-0.47656-0.074219-0.67578-0.074219-0.17578-0.19922-0.32422-0.39844-0.39844-0.10156-0.050782-0.14844-0.19922-0.10156-0.32422 0.050781-0.10156 0.19922-0.14844 0.30078-0.10156 0.30078 0.14844 0.5 0.375 0.625 0.64844 0.125 0.27344 0.14844 0.60156 0.10156 0.92578-0.050781 0.32422-0.17578 0.625-0.39844 0.89844-0.22656 0.30078-0.57422 0.52344-0.97656 0.60156-1.2266 0.22656-2.1484-0.35156-2.6992-1.25-0.30078-0.5-0.47656-1.125-0.47656-1.7734-0.023438-0.625 0.14844-1.2734 0.5-1.8516 0.64844-1.1016 2.0234-1.8516 4.2734-1.6016 0.050781 0 0.10156 0.023438 0.14844 0.023438 1.4258 0.22656 2.6016 1.0742 3.375 2.2266 0.75 1.125 1.125 2.5742 0.94922 3.9766v0.17578c-0.10156 0.64844-0.32422 1.3242-0.625 1.9492 0.72656 0.625 2.0508 0.94922 3.3984 0.92578 0.67578-0.023437 1.3516-0.125 1.9492-0.32422 0.60156-0.19922 1.125-0.5 1.5234-0.89844 0.47656-0.47656 0.75-1.0742 0.72656-1.8516 0-0.125 0.10156-0.22656 0.22656-0.22656 0.050781 0 0.10156 0 0.14844 0.023437 0.60156 0.44922 1.25 0.625 1.8516 0.625 0.57422 0 1.0742-0.17578 1.3984-0.5-0.14844-0.47656-0.25-1-0.27344-1.5742-0.050781-1.8242 0.94922-3.125 2.2734-3.8242 0.52344-0.27344 1.1016-0.47656 1.6758-0.52344 0.57422-0.074219 1.1484-0.023438 1.6758 0.125 1.0508 0.32422 1.8984 1.125 2.0742 2.4492 0 0.10156 0.023437 0.22656 0.023437 0.32422-0.023437 0.60156-0.30078 1.1484-0.72656 1.6016-0.39844 0.42578-0.94922 0.72656-1.5508 0.80078-0.125 0.023437-0.22656 0.023437-0.35156 0.023437-1.0742-0.023437-1.6484-0.44922-1.875-0.97656-0.14844-0.32422-0.17578-0.67578-0.074219-0.97656 0.074219-0.32422 0.27344-0.60156 0.52344-0.77344 0.35156-0.19922 0.77344-0.25 1.2266 0.074218 0.10156 0.074219 0.125 0.22656 0.050781 0.32422-0.074218 0.10156-0.22656 0.125-0.32422 0.050781-0.25-0.17578-0.5-0.17578-0.69922-0.050781-0.14844 0.10156-0.27344 0.27344-0.32422 0.5-0.074218 0.19922-0.074218 0.44922 0.023438 0.67578 0.17578 0.35156 0.625 0.67578 1.4766 0.69922 0.10156 0 0.19922 0 0.30078-0.023437 0.47656-0.050782 0.92578-0.32422 1.2734-0.67578 0.35156-0.35156 0.57422-0.82422 0.57422-1.2734v-0.25c-0.17578-1.125-0.875-1.8008-1.75-2.0742-0.47656-0.14844-0.97656-0.17578-1.5-0.125-0.52344 0.074219-1.0508 0.22656-1.5234 0.47656-1.1484 0.625-2.0742 1.8008-2 3.4258 0.023438 1.0234 0.32422 1.8516 0.82422 2.5s1.2266 1.1484 2.0234 1.4492c0.82422 0.30078 1.7734 0.42578 2.6992 0.39844 1.5742-0.050781 3.1758-0.55078 4.3242-1.4258 7.1016-5.3984 10.074-5.1016 14.176-4.6992 2.8984 0.27344 6.3984 0.625 12.426-1.0742-8.9258 0.19922-13.352-3-16.801-5.4766-3-2.1758-5.25-3.7734-9.125-1.9766-0.10156 0.050782-0.25 0-0.30078-0.125 0-0.023437-0.023438-0.050781-0.023438-0.074218-0.17578-1.5742-0.77344-2.9492-1.6484-4.0234-0.92578-1.1484-2.1758-1.9766-3.625-2.4766-1.1016-0.35156-2.1016-0.44922-3-0.32422-1 0.125-1.875 0.5-2.5508 1.0508-0.64844 0.55078-1.1484 1.2266-1.3984 1.9766-0.17578 0.55078-0.22656 1.1016-0.17578 1.6484 0.14844 1.0508 0.69922 1.8516 1.3984 2.3984 0.5 0.375 1.1016 0.625 1.6758 0.72656 0.60156 0.10156 1.1758 0.050782 1.6758-0.14844 0.52344-0.22656 0.97656-0.625 1.2266-1.2266 0-0.050781 0.023437-0.10156 0.023437-0.125 0.10156-0.35156 0.023437-0.75-0.14844-1.1016-0.17578-0.35156-0.44922-0.64844-0.77344-0.80078-0.050781 0-0.10156-0.023437-0.14844-0.023437-0.25-0.074219-0.5-0.050781-0.72656 0.050781-0.125 0.050782-0.25 0.125-0.32422 0.22656-0.10156 0.10156-0.17578 0.22656-0.19922 0.35156-0.050781 0.19922-0.050781 0.44922 0.074219 0.72656 0.050781 0.125 0 0.25-0.125 0.30078-0.10156 0.050781-0.25 0-0.30078-0.10156-0.14844-0.39844-0.17578-0.72656-0.10156-1.0234 0.050781-0.22656 0.14844-0.39844 0.30078-0.55078 0.125-0.14844 0.30078-0.27344 0.5-0.35156 0.30078-0.14844 0.67578-0.17578 1.0234-0.074219 0.050782 0 0.125 0.023438 0.17578 0.050782 0.44922 0.17578 0.82422 0.57422 1.0508 1 0.22656 0.44922 0.30078 0.97656 0.17578 1.4258 0 0.074219-0.023438 0.125-0.050781 0.17578-0.30078 0.75-0.82422 1.25-1.4766 1.5-0.57422 0.25-1.25 0.30078-1.9258 0.17578-0.64844-0.10156-1.3008-0.375-1.875-0.80078-0.80078-0.625-1.4258-1.5508-1.5742-2.7266-0.074218-0.60156 0-1.25 0.19922-1.8516 0.25-0.75 0.69922-1.4492 1.3516-2.0234-0.47656-1-1.375-1.9766-2.4492-2.5508-0.97656-0.55078-2.0742-0.77344-3.125-0.42578-0.125 0.050781-0.25-0.023437-0.30078-0.14844v-0.074219c0-1.6016-0.44922-2.7734-1.1484-3.5742-0.55078-0.625-1.2734-1.0508-2.0234-1.25-0.75-0.19922-1.5508-0.19922-2.2734-0.023437-0.5 0.125-0.94922 0.32422-1.3242 0.60156h-0.023437c-0.27344 0.19922-0.47656 0.42578-0.64844 0.69922-0.32422 0.5-0.42578 1.1484-0.35156 1.7266 0.050781 0.32422 0.14844 0.64844 0.30078 0.92578 0.14844 0.25 0.375 0.47656 0.60156 0.625 0.30078 0.19922 0.67578 0.27344 1.1016 0.22656 0.67578-0.10156 1.1016-0.52344 1.25-0.97656 0.074219-0.19922 0.10156-0.375 0.10156-0.55078 0-0.17578-0.050782-0.32422-0.125-0.47656-0.125-0.25-0.39844-0.42578-0.80078-0.39844-0.074218 0-0.17578 0.050782-0.25 0.125-0.074218 0.074219-0.125 0.17578-0.17578 0.27344-0.023437 0.10156-0.023437 0.22656 0 0.32422 0.050781 0.10156 0.125 0.19922 0.25 0.27344 0.10156 0.074219 0.14844 0.22656 0.074219 0.32422-0.074219 0.10156-0.22656 0.14844-0.32422 0.074219-0.22656-0.14844-0.375-0.35156-0.42578-0.55078-0.074219-0.17578-0.074219-0.39844 0-0.57422 0.050781-0.17578 0.14844-0.35156 0.27344-0.47656 0.14844-0.14844 0.35156-0.25 0.57422-0.27344 0.57422-0.023438 1 0.25 1.1992 0.64844 0.125 0.22656 0.17578 0.44922 0.17578 0.67578 0.023438 0.25-0.023438 0.47656-0.10156 0.72656-0.22656 0.625-0.77344 1.1758-1.625 1.2734-0.55078 0.074219-1.0234-0.023437-1.3984-0.27344-0.32422-0.19922-0.57422-0.47656-0.77344-0.80078-0.17578-0.32422-0.30078-0.69922-0.35156-1.0742-0.10156-0.69922 0.023438-1.4492 0.39844-2.0508 0.14844-0.22656 0.32422-0.42578 0.52344-0.625-1.3008-0.80078-2.7734-1.1992-4.2734-1.3242-2-0.17578-4.0742 0.14844-5.875 0.625-4.3984 1.2266-6.5234 4.4258-6.875 7.8984-0.17578 1.6992 0.074218 3.4492 0.67578 5.0508 0.60156 1.625 1.5508 3.1016 2.8008 4.2734 2.6016 2.3984 6.4766 3.375 11.176 1.1992 1.6992-0.80078 2.7266-2.1992 3.1484-3.6992 0.30078-0.97656 0.32422-2.0234 0.14844-2.9766-0.17578-0.94922-0.57422-1.8516-1.1484-2.5234-0.75-0.85156-1.75-1.3984-3.0234-1.3984-1.1016 0-2.1016 0.44922-2.8008 1.1484-0.72656 0.72656-1.1758 1.6992-1.1758 2.7734 0 1.125 0.42578 2 1.0234 2.5234 0.32422 0.27344 0.69922 0.47656 1.1016 0.57422 0.375 0.074219 0.77344 0.074219 1.125-0.050781 0.52344-0.17578 1-0.60156 1.2734-1.3008 0.050782-0.125 0.17578-0.17578 0.30078-0.125 0.125 0.050782 0.17578 0.17578 0.125 0.30078-0.32422 0.82422-0.89844 1.3242-1.5508 1.5508-0.44922 0.14844-0.92578 0.17578-1.375 0.074219-0.47656-0.125-0.92578-0.35156-1.3008-0.67578-0.69922-0.625-1.1992-1.6016-1.1992-2.875 0-1.1992 0.5-2.3008 1.3242-3.1016 0.80078-0.80078 1.8984-1.2734 3.125-1.2734 1.4258 0 2.5508 0.60156 3.375 1.5508 0.625 0.75 1.0742 1.6992 1.25 2.7266 0.19922 1.0508 0.14844 2.1484-0.14844 3.1992-0.47656 1.625-1.5742 3.125-3.4258 3.9766-4.875 2.3008-8.9492 1.25-11.676-1.2734-1.0742-1-1.9492-2.2266-2.5742-3.5742-0.42578 0.10156-0.85156 0.25-1.25 0.42578-0.94922 0.42578-1.6992 1.0508-2.1758 1.8242-0.44922 0.77344-0.625 1.75-0.375 2.875 0.074219 0.375 0.22656 0.80078 0.42578 1.25 0.050782 0.10156 0 0.19922-0.074218 0.27344-1.5742 1.3008-2.0508 3.1484-1.6992 4.9492 0.17578 0.97656 0.60156 1.9258 1.1992 2.7734 0.60156 0.82422 1.3984 1.5742 2.3516 2.1016 2.0234 1.1758 4.75 1.3984 7.7266-0.27344 0.074219-0.050781 0.17578-0.050781 0.25 0 1.75 1.125 3.375 1.7266 4.875 1.9492 1.6758 0.27344 3.1758 0 4.3984-0.57422 1.2266-0.57422 2.1992-1.4766 2.875-2.5234 0.10156-0.14844 0.17578-0.30078 0.27344-0.47656zm3.8984 1.4258c-1.3984 0.050781-2.8008-0.30078-3.625-0.94922-0.050781 0.074219-0.10156 0.17578-0.17578 0.25-0.69922 1.125-1.75 2.0742-3.0508 2.6992-1.3008 0.60156-2.875 0.875-4.6758 0.625-1.5-0.22656-3.1758-0.85156-4.9492-1.9766-3.0742 1.6992-5.9258 1.4492-8.0508 0.22656-1-0.55078-1.8516-1.3516-2.5-2.25-0.64844-0.875-1.0742-1.8984-1.2734-2.9258-0.375-1.9258 0.10156-3.8984 1.7266-5.3008-0.17578-0.42578-0.30078-0.80078-0.375-1.1992-0.27344-1.2266-0.10156-2.3008 0.42578-3.1758 0.52344-0.875 1.3516-1.5508 2.375-2.0234 0.39844-0.17578 0.82422-0.32422 1.2734-0.44922-0.074219-0.125-0.125-0.27344-0.17578-0.39844-0.625-1.6992-0.875-3.5-0.69922-5.2734 0.375-3.6484 2.6016-7 7.2266-8.2734 1.8516-0.52344 3.9766-0.85156 6.0508-0.67578 1.625 0.14844 3.1992 0.60156 4.625 1.5 0.39844-0.25 0.875-0.44922 1.375-0.57422 0.80078-0.17578 1.6484-0.17578 2.5 0.023437 0.82422 0.22656 1.625 0.69922 2.25 1.3984 0.69922 0.82422 1.1992 2 1.25 3.5742 1.0742-0.25 2.1992 0 3.1992 0.55078 1.125 0.60156 2.0742 1.6016 2.5742 2.6484 0.72656-0.52344 1.6016-0.875 2.625-1.0234 0.94922-0.125 2.0508-0.023437 3.1992 0.375 1.5234 0.52344 2.8516 1.3984 3.8242 2.6016 0.875 1.0742 1.5 2.4258 1.7266 3.9766 3.9492-1.6992 6.2266-0.050782 9.3008 2.1484 3.6016 2.6016 8.3242 6.0234 18.352 5.3008 0.10156 0 0.19922 0.050782 0.25 0.17578 0.023438 0.10156-0.050781 0.25-0.14844 0.27344-7.25 2.3242-11.176 1.9492-14.398 1.625-3.9766-0.375-6.8984-0.67578-13.852 4.625-1.2266 0.92578-2.8984 1.4766-4.5742 1.5234-1 0.023438-2-0.125-2.875-0.44922-0.89844-0.32422-1.6758-0.85156-2.25-1.6016-0.17578-0.22656-0.32422-0.47656-0.44922-0.75-0.39844 0.32422-0.97656 0.52344-1.6016 0.52344-0.57422 0-1.1758-0.14844-1.7734-0.47656-0.074219 0.69922-0.375 1.2734-0.85156 1.75-0.44922 0.44922-1.0234 0.77344-1.6992 1-0.64844 0.22656-1.375 0.35156-2.1016 0.35156z"/>
</svg>