<svg xmlns="http://www.w3.org/2000/svg" xmlns:xlink="http://www.w3.org/1999/xlink" version="1.1" x="0px" y="0px" viewBox="0 0 64 80" style="enable-background:new 0 0 64 64; fill: #f5c193;" xml:space="preserve"><g><path d="M55.3615112,36.5593681c-1.4654274-0.1492691-3.1270332-0.318058-5.1291237-1.3083534   c-1.3922501-0.6898384-1.7844772-2.2742958-2.1318436-3.6724339c-0.1277695-0.5151615-0.2477913-1.0020695-0.4077797-1.4069366   c-0.929821-2.3503876-3.1699753-5.2998962-5.8930702-6.2199249c-1.6254807-0.5502949-3.2704773-0.3336716-4.8881531,0.6410084   c-1.6020584,0.9659443-1.7288971,3.2275372-1.0342255,4.8637371c0.6039543,1.4225521,1.9825745,2.7553158,4.0373344,2.2011185   c1.3903313-0.3697968,1.7767334-1.4108391,1.8772354-1.8411121c0.1697197-0.7219944-0.0107803-1.4459095-0.4615021-1.842041   c-0.4487991-0.3951397-1.1162033-0.4429741-1.936718-0.137558c-0.255661,0.0946178-0.5463943-0.0342045-0.6429939-0.293705   c-0.0965996-0.2585735,0.0351334-0.5463924,0.293705-0.642992c1.5766525-0.5853672,2.5211601-0.0477734,2.9455452,0.3239422   c0.7346954,0.6468964,1.0322418,1.7279053,0.774662,2.8216801c-0.2965546,1.2605171-1.2654114,2.2244778-2.5923538,2.5777302   c-2.2050209,0.5863571-4.2499924-0.5034523-5.2149429-2.7768173c-0.8586235-2.0235329-0.6459045-4.8529568,1.4390945-6.1096325   c0.6589165-0.3971214,1.3233452-0.6786194,1.9907532-0.8574467c-0.9973602-3.0407181-3.9586411-5.2550964-7.7286682-5.6835098   c-4.3359356-0.4907494-9.8601398,2.1991978-10.7695103,6.538044c-0.5395145,2.5679398,0.5151615,6.1047363,2.4021263,8.0521774   c0.8088055,0.8332825,2.154274,1.7591972,3.9680595,1.4371758c2.6470051-0.4702415,3.5836411-2.7962761,3.3348579-4.7593307   c-0.2098064-1.6440067-1.3142376-3.2314415-3.3280411-3.078207c-1.2449646,0.0965385-1.7386246,0.8419552-1.923027,1.2781143   c-0.2898026,0.6888447-0.1912193,1.5025444,0.2448788,2.0255146c0.449789,0.5366001,1.2079086,0.7180901,2.1269474,0.5092754   c0.2751789-0.0546513,0.5366631,0.1102314,0.5971394,0.3785324c0.0594845,0.2692928-0.1093044,0.5366631-0.3785954,0.5971394   c-1.7639675,0.3951397-2.7064896-0.3600063-3.1114197-0.8449306c-0.680975-0.8136997-0.8380508-2.0128117-0.3990421-3.053854   c0.462492-1.0976162,1.4703865-1.7854691,2.7670269-1.8849831c2.6333733-0.2156315,4.1349277,1.9025173,4.3954201,3.9475517   c0.3161373,2.4938316-1.0078926,5.3106155-4.1505413,5.8686562c-0.3102493,0.0556412-0.6175861,0.0829697-0.9210205,0.0829697   c-1.4351902,0-2.7826424-0.6146774-3.939743-1.8079643c-0.8453007-0.8725014-1.5293121-2.0383396-2.0177059-3.3010864   c-1.9298439,0.2739391-2.6060486,1.4543381-3.4343719,2.9449844c-0.4937229,0.8888626-1.004981,1.8088913-1.8411121,2.6186905   C10.6971521,38.2189903,5.2333627,36.6617928,2,34.2782555c0.3200397,1.6078796,1.2225335,3.1582603,2.6147842,4.4607887   c2.1035881,1.9688797,5.0491314,3.1153259,7.6619949,2.9943085c0.848834-0.0399666,1.7513275-0.2477875,2.7074814-0.4673233   c1.7581425-0.4029465,3.577816-0.8215103,5.2617893-0.2107391c1.566925,0.568821,3.0899792,1.6440086,4.5622864,2.6830673   c3.3299637,2.3494606,6.4755249,4.5681114,10.4494724,1.9221001c1.5552139-1.0352211,2.5786591-3.1767921,2.5474281-5.3310661   c-0.025341-1.8089523-0.79319-3.2753716-2.1610909-4.1310234c-1.0439529-0.649807-2.3123398-0.6478233-3.4831352,0.0097275   c-1.1610661,0.6527824-1.9318256,1.8196754-1.9181938,2.9036598c0.0127029,0.9951897,0.6595364,1.8605652,1.8713493,2.5035591   c0.7337074,0.3873329,1.6947556-0.0166054,2.0635605-0.6410103c0.3102493-0.5249519,0.1277695-1.030323-0.5297852-1.461586   c-0.2302551-0.1511917-0.2946968-0.4615021-0.1434441-0.6917572c0.1502609-0.2321777,0.4605103-0.2946358,0.6917572-0.143383   c1.3298531,0.8731842,1.2840004,2.0566826,0.8410263,2.8060036c-0.611763,1.0332336-2.1172218,1.6889305-3.3914318,1.0137177   c-1.5317917-0.811718-2.3855209-2.0098991-2.4021263-3.3738327c-0.018528-1.4596672,0.9347153-2.946537,2.4274693-3.7866325   c1.4772034-0.8293152,3.159256-0.8244209,4.5017509,0.0146217c1.6664352,1.0410423,2.6001587,2.804081,2.6313896,4.964241   c0.0205688,1.4127617-0.3715324,2.8182106-1.0416641,3.9978027c5.4179993,2.7814674,8.5049438,0.1431999,11.2296486-2.2035332   c1.0391235-0.8946877,2.0196915-1.7406082,3.0684776-2.247963C54.5527077,38.6560783,59.5422935,39.3293076,62,39.7683792   C59.4222679,36.9721031,57.5245857,36.778904,55.3615112,36.5593681z"/></g></svg>