<svg xmlns="http://www.w3.org/2000/svg" version="1.1" viewBox="-5.0 -10.0 110.0 135.0" style="fill: #f5c193;">
 <path d="m32.227 60.273c-1.2266 0.22656-2.1758-0.32422-2.7266-1.1484-0.32422-0.47656-0.5-1.0742-0.5-1.6758-0.023438-0.57422 0.14844-1.1992 0.5-1.7266 0.67578-1 2.0742-1.7266 4.375-1.4766 0.050781 0 0.10156 0 0.14844 0.023437 1.4766 0.19922 2.6758 0.97656 3.4492 2.0508 0.80078 1.0742 1.1758 2.4258 1 3.7266 0 0.050781 0 0.125-0.023437 0.17578-0.10156 0.625-0.32422 1.25-0.64844 1.8516 0.77344 0.625 2.1484 0.92578 3.5508 0.89844 0.69922-0.023437 1.3984-0.125 2.0234-0.32422 0.625-0.17578 1.1758-0.47656 1.6016-0.85156 0.47656-0.44922 0.77344-1.0234 0.75-1.75 0-0.10156 0.10156-0.19922 0.19922-0.19922 0.050781 0 0.10156 0.023438 0.125 0.050782 0.625 0.39844 1.3242 0.60156 1.9258 0.57422 0.625 0 1.1758-0.17578 1.5-0.5-0.17578-0.42578-0.27344-0.92578-0.30078-1.4766-0.050781-1.6992 0.97656-2.9258 2.3242-3.5742 0.52344-0.27344 1.125-0.42578 1.7266-0.5 0.57422-0.074219 1.1758-0.023437 1.6992 0.125 1.0742 0.30078 1.9258 1.0508 2.125 2.2734 0 0.10156 0.023438 0.19922 0.023438 0.30078-0.023438 0.55078-0.30078 1.0742-0.72656 1.4766-0.42578 0.39844-1 0.69922-1.5742 0.77344h-0.375c-1.0742-0.023438-1.6758-0.42578-1.8984-0.875-0.14844-0.30078-0.17578-0.625-0.074219-0.92578 0.074219-0.30078 0.27344-0.55078 0.52344-0.69922 0.35156-0.19922 0.77344-0.22656 1.2266 0.074218 0.074219 0.050782 0.10156 0.17578 0.050781 0.25-0.074218 0.10156-0.19922 0.10156-0.30078 0.050782-0.27344-0.17578-0.55078-0.17578-0.75-0.074219-0.17578 0.125-0.30078 0.30078-0.375 0.5-0.050781 0.19922-0.050781 0.44922 0.050781 0.64844 0.19922 0.375 0.64844 0.67578 1.5508 0.67578 0.10156 0.023437 0.19922 0 0.30078 0 0.5-0.074219 1-0.30078 1.3516-0.64844 0.35156-0.35156 0.60156-0.77344 0.60156-1.2266v-0.25c-0.17578-1.0742-0.89844-1.6992-1.8242-1.9766-0.47656-0.125-1.0234-0.17578-1.5508-0.10156-0.55078 0.050781-1.1016 0.19922-1.6016 0.44922-1.1992 0.57422-2.1484 1.6992-2.0742 3.25 0.023437 0.94922 0.35156 1.75 0.85156 2.3516 0.52344 0.64844 1.2734 1.1016 2.125 1.375 0.85156 0.30078 1.8242 0.42578 2.8008 0.39844 1.625-0.050782 3.2734-0.52344 4.4492-1.3516 7.3242-5.0742 10.375-4.8008 14.602-4.4258 3.0508 0.27344 6.6992 0.60156 13.074-1.0742-9.375 0.25-13.977-2.7734-17.574-5.1484-3.1016-2.0234-5.3984-3.5508-9.4258-1.8516-0.10156 0.023437-0.22656 0-0.27344-0.10156v-0.050781c-0.19922-1.5-0.82422-2.8008-1.7266-3.8242-0.94922-1.0742-2.25-1.875-3.75-2.3242-1.125-0.35156-2.1758-0.42578-3.125-0.32422-1.0234 0.125-1.9258 0.47656-2.625 1-0.69922 0.52344-1.1992 1.1758-1.4492 1.875-0.19922 0.52344-0.25 1.0508-0.17578 1.5742 0.125 0.97656 0.69922 1.75 1.4492 2.2734 0.52344 0.35156 1.125 0.60156 1.75 0.67578 0.60156 0.10156 1.1992 0.050782 1.7266-0.125 0.55078-0.22656 1.0234-0.60156 1.2734-1.1758 0.023438-0.050781 0.023438-0.10156 0.050781-0.125 0.10156-0.35156 0.023438-0.72656-0.14844-1.0742-0.19922-0.32422-0.5-0.60156-0.85156-0.75-0.050781 0-0.10156-0.023437-0.14844-0.023437-0.25-0.074219-0.52344-0.050781-0.77344 0.050781-0.125 0.050782-0.25 0.125-0.35156 0.22656-0.10156 0.10156-0.17578 0.22656-0.19922 0.35156-0.074218 0.19922-0.050781 0.42578 0.074219 0.69922 0.050781 0.10156 0 0.19922-0.10156 0.25-0.10156 0.023438-0.22656 0-0.27344-0.10156-0.14844-0.35156-0.17578-0.67578-0.10156-0.94922 0.050782-0.19922 0.14844-0.35156 0.30078-0.5 0.125-0.125 0.30078-0.25 0.5-0.32422 0.32422-0.125 0.67578-0.14844 1.0234-0.074219 0.074219 0.023438 0.14844 0.050781 0.19922 0.074219 0.44922 0.14844 0.82422 0.5 1.0508 0.92578 0.22656 0.39844 0.30078 0.89844 0.19922 1.3008-0.023438 0.074219-0.050781 0.125-0.074219 0.17578-0.30078 0.67578-0.85156 1.1484-1.5 1.3984-0.60156 0.19922-1.2734 0.25-1.9492 0.14844-0.67578-0.10156-1.3516-0.35156-1.9258-0.75-0.82422-0.57422-1.4492-1.4258-1.6016-2.5234-0.10156-0.60156-0.023438-1.1758 0.17578-1.7266 0.27344-0.72656 0.75-1.375 1.3984-1.9258-0.47656-0.94922-1.4258-1.875-2.5234-2.4492-1.0234-0.5-2.1758-0.72656-3.25-0.39844-0.125 0.050781-0.22656 0-0.27344-0.10156v-0.074219c0-1.5234-0.47656-2.625-1.1992-3.375-0.57422-0.60156-1.3242-1-2.1016-1.1758-0.77344-0.19922-1.6016-0.19922-2.3516-0.050781-0.52344 0.125-1 0.30078-1.3984 0.57422h-0.023437c-0.27344 0.19922-0.5 0.42578-0.67578 0.64844-0.32422 0.5-0.42578 1.1016-0.35156 1.6758 0.050781 0.30078 0.14844 0.60156 0.32422 0.875 0.14844 0.25 0.375 0.44922 0.625 0.60156 0.30078 0.17578 0.69922 0.27344 1.1484 0.19922 0.69922-0.074218 1.1484-0.47656 1.3242-0.92578 0.074219-0.17578 0.10156-0.35156 0.10156-0.52344-0.023438-0.17578-0.050782-0.32422-0.14844-0.44922-0.125-0.27344-0.42578-0.42578-0.85156-0.42578-0.074219 0.023437-0.19922 0.074218-0.27344 0.14844s-0.14844 0.17578-0.17578 0.27344c-0.050781 0.10156-0.050781 0.19922-0.023438 0.30078 0.050781 0.10156 0.125 0.19922 0.27344 0.30078 0.10156 0.050781 0.125 0.17578 0.074219 0.25-0.074219 0.10156-0.19922 0.125-0.30078 0.050781-0.22656-0.125-0.35156-0.30078-0.42578-0.47656-0.050781-0.17578-0.050781-0.375 0-0.52344 0.050781-0.17578 0.14844-0.32422 0.27344-0.42578 0.17578-0.14844 0.375-0.25 0.57422-0.25 0.60156-0.023437 1 0.22656 1.2266 0.60156 0.10156 0.17578 0.17578 0.375 0.17578 0.60156s-0.023437 0.44922-0.125 0.67578c-0.22656 0.55078-0.77344 1.0742-1.6484 1.1758-0.55078 0.074219-1.0234-0.023437-1.4258-0.25-0.30078-0.17578-0.57422-0.44922-0.77344-0.75-0.17578-0.30078-0.30078-0.64844-0.35156-1-0.10156-0.64844 0.023438-1.3516 0.42578-1.8984 0.14844-0.22656 0.32422-0.42578 0.55078-0.60156-1.3516-0.80078-2.8984-1.1758-4.4766-1.3008-2.0742-0.14844-4.1992 0.14844-6.0508 0.60156-4.5742 1.1484-6.7734 4.1758-7.125 7.4766-0.17578 1.5742 0.074219 3.2266 0.69922 4.75 0.60156 1.5234 1.6016 2.9258 2.875 4.0234 2.6992 2.2734 6.7266 3.1992 11.574 1.1484 1.7734-0.77344 2.8242-2.0742 3.2734-3.5 0.30078-0.92578 0.35156-1.9258 0.14844-2.8242-0.17578-0.89844-0.60156-1.75-1.1992-2.3984-0.75-0.80078-1.8242-1.3008-3.125-1.3008-1.1484 0-2.1758 0.39844-2.9258 1.0742-0.75 0.67578-1.2266 1.625-1.2266 2.6484 0 1.0742 0.44922 1.875 1.0742 2.375 0.35156 0.27344 0.75 0.47656 1.1484 0.55078 0.39844 0.10156 0.80078 0.074219 1.1758-0.050781 0.55078-0.17578 1.0508-0.57422 1.3242-1.2266 0.050781-0.10156 0.17578-0.14844 0.27344-0.125 0.10156 0.050781 0.14844 0.14844 0.125 0.25-0.35156 0.77344-0.92578 1.25-1.5742 1.4492-0.47656 0.14844-0.94922 0.17578-1.4258 0.074219-0.47656-0.10156-0.92578-0.32422-1.3242-0.64844-0.69922-0.55078-1.1992-1.4766-1.1992-2.6484 0-1.125 0.5-2.1484 1.3242-2.8984s1.9492-1.1992 3.2266-1.1992c1.4258 0 2.6016 0.55078 3.4258 1.4492 0.67578 0.69922 1.1016 1.6016 1.3008 2.5508 0.19922 0.97656 0.17578 2-0.14844 3-0.47656 1.5234-1.625 2.9258-3.5 3.7266-5.0234 2.1484-9.1992 1.1758-12.023-1.1992-1.1016-0.94922-2-2.1016-2.6484-3.3984-0.44922 0.125-0.89844 0.25-1.3242 0.42578-0.97656 0.39844-1.7734 0.97656-2.25 1.7266-0.47656 0.75-0.64844 1.6484-0.39844 2.7266 0.074219 0.375 0.22656 0.77344 0.44922 1.1758 0.023437 0.10156 0 0.17578-0.074219 0.22656-1.625 1.25-2.125 3-1.7734 4.6992 0.19922 0.92578 0.625 1.8242 1.25 2.625s1.4492 1.5 2.4258 2c2.125 1.1016 4.9492 1.3008 8-0.27344 0.074219-0.050781 0.17578-0.023437 0.22656 0 1.8242 1.0742 3.5234 1.6484 5.0508 1.8516 1.75 0.25 3.2734 0 4.5508-0.55078 1.2734-0.55078 2.3008-1.3984 2.9766-2.375 0.10156-0.14844 0.19922-0.30078 0.30078-0.44922v-0.023438c0.35156-0.60156 0.57422-1.2266 0.67578-1.8516 0-0.050782 0.023438-0.10156 0.023438-0.14844 0.14844-1.2266-0.19922-2.4766-0.92578-3.4766-0.72656-1-1.8242-1.7266-3.1758-1.9258h-0.14844c-2.1016-0.22656-3.375 0.39844-3.9766 1.3008-0.32422 0.47656-0.44922 1-0.44922 1.5234 0 0.52344 0.17578 1.0508 0.44922 1.4766 0.44922 0.69922 1.25 1.1758 2.3008 0.97656 0.32422-0.050781 0.57422-0.19922 0.75-0.42578 0.17578-0.17578 0.27344-0.42578 0.32422-0.64844 0.050781-0.22656 0.023437-0.44922-0.074219-0.64844-0.074218-0.17578-0.22656-0.30078-0.42578-0.39844-0.10156-0.050781-0.14844-0.14844-0.10156-0.25 0.050782-0.10156 0.17578-0.125 0.27344-0.074218 0.30078 0.125 0.5 0.32422 0.625 0.57422s0.14844 0.55078 0.10156 0.85156c-0.050781 0.30078-0.17578 0.60156-0.39844 0.82422-0.25 0.30078-0.57422 0.5-1 0.57422z" fill-rule="evenodd"/>
</svg>